<?xml version="1.0" encoding="utf-8"?>
<!-- Generator: Adobe Illustrator 24.2.3, SVG Export Plug-In . SVG Version: 6.00 Build 0)  -->
<svg version="1.1" id="Layer_1" xmlns="http://www.w3.org/2000/svg" xmlns:xlink="http://www.w3.org/1999/xlink" x="0px" y="0px"
	 width="1920px" height="1080px" viewBox="0 0 1920 1080" style="enable-background:new 0 0 1920 1080;" xml:space="preserve">
<style type="text/css">
	.st0{fill:#FFFFFF;stroke:#000000;stroke-miterlimit:10;}
	.st1{clip-path:url(#SVGID_2_);}
	.st2{fill:#FFFFFF;}
	.st3{fill:#F0F6FC;}
	.st4{fill:#314D9B;}
	.st5{fill:none;stroke:#314D9B;stroke-width:2;stroke-miterlimit:10;}
</style>
<rect class="st0" width="1920" height="1080"/>
<g>
	<g>
		<defs>
			<rect id="SVGID_1_" x="0.9" width="1919.1" height="1080"/>
		</defs>
		<clipPath id="SVGID_2_">
			<use xlink:href="#SVGID_1_"  style="overflow:visible;"/>
		</clipPath>
		<g class="st1">
			<rect x="-1.1" y="312.2" class="st2" width="1922.1" height="890.2"/>
			<rect x="-2.6" y="883.9" class="st3" width="1922.6" height="299.5"/>
			<path class="st2" d="M1920,993.3h-449.9c-52.2,0-103.5-13.1-149.3-38.1c-48.8-26.7-133.2-57.6-262.3-57.6
				C831.1,897.6-2.6,885.3-2.6,885.3C-1,876.6,383,907,673.9,1003c21.8,7.2,17.8,38.6-5.1,38.6H0v141.9h1920V993.3z"/>
			<polygon class="st3" points="1060.3,764 1060.3,756.5 1066.7,755.4 1085.9,755.4 1085.9,706.2 1092.4,704 1092.4,689 
				1105.2,685.8 1196.2,685.8 1196.2,814.3 1226.2,814.3 1226.2,668.6 1233.6,668.6 1233.6,662.2 1278.6,662.2 1278.6,693.2 
				1309.6,693.2 1309.6,684.6 1319.3,684.6 1319.3,678.2 1326.8,678.2 1326.8,675 1354.6,675 1354.6,648.3 1381.3,648.3 
				1381.3,594.8 1393.1,591.5 1454.1,591.5 1454.1,675 1479.8,675 1479.8,685.7 1488.3,685.7 1488.3,667.5 1503.3,667.5 1503.3,629 
				1515.1,629 1555.8,629 1555.8,638.6 1578.2,638.6 1582.5,706 1638.2,706 1641.4,635.4 1690.6,635.4 1690.6,691.1 1693.8,691.1 
				1693.8,676.1 1751.6,676.1 1751.6,884.8 825.9,884.8 825.9,774.7 844.1,774.7 850,775.5 850,803 913.2,803 913.2,772.9 
				932.9,772.9 933.5,774.4 942.5,774.4 942.5,801.2 962.3,801.2 962.3,710.5 965,710 971.8,709.5 971.8,704.9 985.5,702.2 
				985.5,699 988.5,699 988.5,692.3 994.3,692.3 994.3,689.1 995,689.1 995,548.3 995.5,548.3 995.5,689 996.1,689 996.1,692.3 
				1001.4,692.3 1001.4,698.7 1003.5,698.7 1003.5,701.9 1011,701.9 1011,754.3 1016.4,754.3 1016.4,816.4 1043.2,816.4 
				1043.2,763.6 			"/>
			<polygon class="st3" points="2663.2,676.1 2605.4,676.1 2605.4,691.1 2602.2,691.1 2602.2,635.4 2553,635.4 2549.8,706 
				2494.1,706 2489.8,638.6 2467.3,638.6 2467.3,629 2426.7,629 2414.9,629 2414.9,667.5 2399.9,667.5 2399.9,685.7 2391.4,685.7 
				2391.4,675 2365.7,675 2365.7,591.5 2304.7,591.5 2292.9,594.8 2292.9,648.3 2266.1,648.3 2266.1,675 2238.3,675 2238.3,678.2 
				2230.8,678.2 2230.8,684.6 2221.2,684.6 2221.2,693.2 2190.2,693.2 2190.2,662.2 2145.2,662.2 2145.2,668.6 2137.7,668.6 
				2137.7,683.6 2107.8,683.6 2107.8,555.2 2016.8,555.2 2003.9,558.4 2003.9,573.3 1997.5,575.5 1997.5,624.7 1978.3,624.7 
				1971.8,625.8 1971.8,633.3 1962.2,633.3 1962.2,587.2 1969.7,587.2 1969.7,576.5 1965.4,576.5 1964.3,569.1 1959,569.1 
				1959,556.2 1957.9,556.2 1957.9,569.1 1952.6,569.1 1951.5,576.5 1946.2,576.5 1946.2,587.2 1954.7,587.2 1954.7,685.7 
				1928,685.7 1928,623.6 1922.6,623.6 1922.6,571.2 1915.1,571.2 1915.1,568 1913,568 1913,561.6 1907.6,561.6 1907.6,558.4 
				1907.1,558.4 1907.1,548.3 1906.6,548.3 1906.6,558.4 1905.8,558.4 1905.8,561.6 1900,561.6 1900,568.3 1897.1,568.3 
				1897.1,571.5 1883.4,574.2 1883.4,578.8 1876.6,579.3 1873.8,579.8 1873.8,670.5 1854.1,670.5 1854.1,643.7 1845,643.7 
				1844.5,642.2 1824.8,642.2 1824.8,672.3 1761.5,672.3 1761.5,644.8 1755.7,644 1737.5,644 1737.5,884.8 2663.2,884.8 			"/>
			<polygon class="st3" points="825.9,806.8 768.1,806.8 768.1,821.8 764.9,821.8 764.9,766.1 715.7,766.1 712.5,836.7 656.8,836.7 
				652.5,638.6 630,638.6 630,629 589.4,629 577.6,629 577.6,667.5 562.6,667.5 562.6,685.7 554.1,685.7 554.1,675 528.4,675 
				528.4,591.5 467.4,591.5 455.6,594.8 455.6,648.3 428.8,648.3 428.8,675 401,675 401,678.2 393.5,678.2 393.5,684.6 383.9,684.6 
				383.9,693.2 352.9,693.2 352.9,662.2 307.9,662.2 307.9,668.6 300.4,668.6 300.4,683.6 270.5,683.6 270.5,555.2 179.5,555.2 
				166.6,558.4 166.6,573.3 160.2,575.5 160.2,624.7 141,624.7 134.5,625.8 134.5,633.3 124.9,633.3 124.9,587.2 132.4,587.2 
				132.4,576.5 128.1,576.5 127,569.1 121.7,569.1 121.7,556.2 120.6,556.2 120.6,569.1 115.3,569.1 114.2,576.5 108.8,576.5 
				108.8,587.2 117.4,587.2 117.4,685.7 90.7,685.7 90.7,623.6 85.3,623.6 85.3,571.2 77.8,571.2 77.8,568 75.7,568 75.7,561.6 
				70.3,561.6 70.3,558.4 69.8,558.4 69.8,548.3 69.2,548.3 69.2,558.4 68.6,558.4 68.6,561.6 62.7,561.6 62.7,568.3 59.8,568.3 
				59.8,571.5 46.1,574.2 46.1,578.8 39.2,579.3 36.5,579.8 36.5,670.5 16.8,670.5 16.8,643.7 7.7,643.7 7.2,642.2 -12.6,642.2 
				-12.6,672.3 -75.8,672.3 -75.8,644.8 -81.6,644 -99.8,644 -99.8,884.8 825.9,884.8 			"/>
			<path class="st2" d="M398.1,731.5c0,0.3,0.2,0.6,0.5,0.8l12.5,8.5v142h-25v2.3h164.1V596h-59.6c-0.6,0-1.1,0.5-1.1,1.1V671H482
				v-8c0-0.6-0.5-1.1-1.1-1.1s-1.1,0.5-1.1,1.1v8H472v-8c0-0.6-0.5-1.1-1.1-1.1s-1.1,0.5-1.1,1.1v8H463v-8c0-0.6-0.5-1.1-1.1-1.1
				s-1.1,0.5-1.1,1.1v8h-8.2v-8c0-0.6-0.5-1.1-1.1-1.1s-1.1,0.5-1.1,1.1v8h-7.5v-8c0-0.6-0.5-1.1-1.1-1.1s-1.1,0.5-1.1,1.1v8h-6.8
				v-8c0-0.6-0.5-1.1-1.1-1.1s-1.1,0.5-1.1,1.1v8h-18.6c-0.6,0-1.1,0.5-1.1,1.1l0,0V683l-13,7.5l-0.2,0.2l-0.2,0.1l-0.1,0.2
				l-0.1,0.2c0,0.1-0.1,0.2-0.1,0.2s0,0.1,0,0.2v39.6C398,731.2,398,731.3,398.1,731.5z"/>
			<path class="st2" d="M246.6,726.2c0-0.6-0.5-1.1-1.1-1.1l0,0h-6.1v-27.3c0-0.2-0.1-0.3-0.2-0.3c-0.2,0-0.3,0.1-0.3,0.2v0.1v27.3
				h-6c-0.6,0-1.1,0.5-1.1,1.1l0,0V745h-3.2c-0.6,0-1.1,0.5-1.1,1.1l0,0v39.4H172c-0.6,0-1.1,0.5-1.1,1.1v16H164
				c-0.6,0-1.1,0.5-1.1,1.1v31h-119c-0.6,0-1.1,0.5-1.1,1.1l0,0v46.8H2c-0.6,0-1.1,0.5-1.1,1.1s0.5,1.1,1.1,1.1h248.7V734.7h-4.1
				L246.6,726.2z"/>
			<path class="st2" d="M1504.6,850.4c2.4-3.1,3.6-6.9,3.6-10.8c0-0.5,0-1-0.1-1.5l-0.1-1l0.8-0.6c2.2-1.6,4-3.7,5.2-6.1
				c0.3-0.7,0.6-1.4,0.9-2.1c0.9-2.5,1.1-5.3,0.5-7.9c-1.2-5.8-5.4-10.4-11-12.3L1504.6,850.4z"/>
			<path class="st2" d="M1839.3,696.1h-119.1v-57.3c0-0.6-0.5-1.1-1.1-1.1l0,0h-15.7v-22c0-0.6-0.5-1.1-1.1-1.1l0,0h-10.6v-19.4
				c0-0.6-0.5-1.1-1.1-1.1l0,0h-28.1c-0.6,0-1.1,0.5-1.1,1.1l0,0v19.4H1651c-0.6,0-1.1,0.5-1.1,1.1l0,0v22h-13.6
				c-0.6,0-1.1,0.5-1.1,1.1l0,0v169.1H1584v-68l0.9-0.5c18.5-9.4,25.8-32.1,16.4-50.6c-3.6-7.1-9.3-12.8-16.4-16.4l-0.9-0.5V658
				c0-0.6-0.5-1.1-1.1-1.1l0,0h-7.3v-12.3c0-0.6-0.5-1.1-1.1-1.1h-5.4V623c0-0.6-0.5-1.1-1.1-1.1s-1.1,0.5-1.1,1.1v20.5h-5.4
				c-0.6,0-1.1,0.5-1.1,1.1v12.3h-7.3c-0.6,0-1.1,0.5-1.1,1.1l0,0v13.8l-0.9,0.5c-18.5,9.4-25.8,32.1-16.4,50.6
				c3.6,7.1,9.3,12.8,16.4,16.4l0.9,0.5V848l-8.9,7.9l-1.6,1.4l-28.8,25.5h-7.6v2.3h67.2l3.8,3.8l3.8-3.8h259.9v-189H1839.3z"/>
			<path class="st2" d="M352.9,728.5h-0.6v-12.4c0-0.3-0.1-0.6-0.4-0.8l-0.5-0.4l-0.1-0.6c-0.4-5.4-2.1-10.6-5-15.2
				c-2.9-4.3-6.6-7-10.7-7.8l-1.4-0.2v-28.5c0-0.6-0.5-1.1-1.1-1.1s-1.1,0.5-1.1,1.1v28.6l-1.4,0.3c-4,0.8-7.5,3.5-10.3,7.7
				c-2.8,4.5-4.6,9.5-5,14.8l-0.1,0.8l-0.7,0.4c-0.4,0.2-0.6,0.6-0.6,1v12.4h-12.1c-0.6,0-1.1,0.5-1.1,1.1V742h-12.1
				c-0.6,0-1.1,0.5-1.1,1.1l0,0v139.7h-9.8v2.3h75.2L352.9,728.5z"/>
			<path class="st2" d="M1454.2,546.6h-62c-0.6,0-1.1,0.5-1.1,1.1l-3.1,153.6v3l-0.8,37.4l-0.1,3l-2.8,138.2H1357v-23.5
				c0-0.6-0.5-1.1-1.1-1.1h-69.3c-0.6,0-1.1,0.5-1.1,1.1v23.4H661.2v2.3h793V546.6z"/>
			<path class="st2" d="M1345.2,562.2h-28.9c-0.3,0-0.7,0.2-0.9,0.4c-0.2,0.3-0.3,0.7-0.2,1l9.5,40.5l-1.7,0.3
				c-7,1.4-13.8,3.5-20.3,6.2c-0.5,0.2-0.7,0.7-0.7,1.2c3.6,21.2,7.2,44.2,9.5,68.4l0.1,0.8l-0.5,0.6c-0.2,0.2-0.3,0.5-0.3,0.8
				c-0.5,20.8-7.4,99.6-19.9,130.8c-0.1,0.3-0.1,0.7,0.1,1c1.9,3,5.7,7,9.2,10.5c1.1,1.2,2.2,2.2,3.1,3.2l0.6,0.6l-0.2,0.9
				c-1.2,6.2-2.6,12.5-4,18.8l-0.3,1.3h-12.8c-0.6,0-1.1,0.5-1.1,1.1s0.5,1.1,1.1,1.1h58.6L1345.2,562.2z"/>
			<path class="st4" d="M186.1,828c-0.4,0-0.7,0-1,0v-11.2c0.7-0.1,1.3-0.1,2,0V828C186.8,828,186.4,828,186.1,828z"/>
			<path class="st4" d="M168.1,828c-0.4,0-0.7,0-1,0v-11.2c0.7-0.1,1.3-0.1,2,0V828C168.9,828,168.5,828,168.1,828z"/>
			<path class="st4" d="M150.2,828c-0.4,0-0.7,0-1,0v-11.2c0.7-0.1,1.3-0.1,2,0V828C150.9,828,150.6,828,150.2,828z"/>
			<path class="st4" d="M186.1,848.8c-0.4,0-0.7,0-1,0v-11.2c0.3,0,0.7,0,1,0s0.7,0,1,0v11.1C186.8,848.8,186.4,848.8,186.1,848.8z"
				/>
			<path class="st4" d="M168.1,848.8c-0.4,0-0.7,0-1,0v-11.2c0.3,0,0.7,0,1,0s0.7,0,1,0v11.1C168.9,848.8,168.5,848.8,168.1,848.8z"
				/>
			<path class="st4" d="M150.2,848.8c-0.4,0-0.7,0-1,0v-11.2c0.3,0,0.7,0,1,0s0.7,0,1,0v11.1C150.9,848.8,150.6,848.8,150.2,848.8z"
				/>
			<path class="st4" d="M186.1,871c-0.3,0-0.7,0-1-0.1v-11.1c0.3,0,0.7,0,1,0s0.7,0,1,0V871C186.7,871,186.4,871,186.1,871z"/>
			<path class="st4" d="M168.1,871c-0.3,0-0.7,0-1-0.1v-11.1c0.3,0,0.7,0,1,0s0.7,0,1,0V871C168.8,871,168.5,871,168.1,871z"/>
			<path class="st4" d="M150.2,871c-0.3,0-0.7,0-1-0.1v-11.1c0.3,0,0.7,0,1,0s0.7,0,1,0V871C150.9,871,150.6,871,150.2,871z"/>
			<path class="st4" d="M204.6,763.6c-0.1,0-0.1,0-0.1-0.1l0,0c0-0.1,0-0.1,0.1-0.1h27.7c0.1,0,0.1,0,0.1,0.1s0,0.1-0.1,0.1l0,0
				H204.6z"/>
			<path class="st4" d="M204.6,783.6c-0.1,0-0.1-0.1-0.1-0.1c0-0.1,0-0.1,0.1-0.1h27.7c0.1,0,0.1,0.1,0.1,0.1c0,0.1,0,0.1-0.1,0.1
				H204.6z"/>
			<path class="st4" d="M204.6,803.6c0,0-0.1,0-0.1-0.1c0,0,0-0.1,0.1-0.1h27.7c0.1,0,0.1,0.1,0.1,0.1c0,0.1,0,0.1-0.1,0.1H204.6z"
				/>
			<path class="st4" d="M204.6,823.7c0,0-0.1,0-0.1-0.1c0,0,0-0.1,0.1-0.1h27.7c0.1,0,0.1,0,0.1,0.1s0,0.1-0.1,0.1H204.6z"/>
			<path class="st4" d="M204.6,843.7c0,0-0.1,0-0.1-0.1s0-0.1,0.1-0.1h27.7c0.1,0,0.1,0,0.1,0.1s0,0.1-0.1,0.1l0,0H204.6z"/>
			<path class="st4" d="M204.6,863.7c0,0-0.1,0-0.1-0.1s0-0.1,0.1-0.1h27.7c0.1,0,0.1,0,0.1,0.1s0,0.1-0.1,0.1l0,0H204.6z"/>
			<path class="st4" d="M537.8,699.1c-0.5-0.1-0.8-0.7-0.7-1.2c0.1-0.3,0.4-0.6,0.7-0.7H567c0.5,0.1,0.8,0.7,0.7,1.2
				c-0.1,0.3-0.4,0.6-0.7,0.7H537.8z"/>
			<path class="st4" d="M537.8,724.8c-0.5-0.1-0.8-0.7-0.7-1.2c0.1-0.3,0.4-0.6,0.7-0.7H567c0.5,0.1,0.8,0.7,0.7,1.2
				c-0.1,0.3-0.4,0.6-0.7,0.7H537.8z"/>
			<path class="st4" d="M537.8,750.5c-0.5-0.1-0.8-0.7-0.7-1.2c0.1-0.3,0.4-0.6,0.7-0.7H567c0.5,0.1,0.8,0.7,0.7,1.2
				c-0.1,0.3-0.4,0.6-0.7,0.7H537.8z"/>
			<path class="st4" d="M537.8,776.1c-0.5-0.1-0.8-0.7-0.7-1.2c0.1-0.3,0.4-0.6,0.7-0.7H567c0.5,0.1,0.8,0.7,0.7,1.2
				c-0.1,0.3-0.4,0.6-0.7,0.7H537.8z"/>
			<path class="st4" d="M537.8,801.8c-0.5,0.2-1.1-0.1-1.2-0.7c-0.2-0.5,0.1-1.1,0.7-1.2c0.2-0.1,0.4-0.1,0.6,0H567
				c0.5-0.2,1.1,0.1,1.2,0.7c0.2,0.5-0.1,1.1-0.7,1.2c-0.2,0.1-0.4,0.1-0.6,0H537.8z"/>
			<path class="st4" d="M537.8,827.5c-0.5-0.1-0.8-0.7-0.7-1.2c0.1-0.3,0.4-0.6,0.7-0.7H567c0.5,0.1,0.8,0.7,0.7,1.2
				c-0.1,0.3-0.4,0.6-0.7,0.7H537.8z"/>
			<path class="st4" d="M1665.5,653.4c-0.6,0-1-0.4-1-1v-9.2c0.1-0.5,0.7-0.8,1.2-0.7c0.3,0.1,0.6,0.4,0.7,0.7v9.2
				C1666.5,653,1666,653.4,1665.5,653.4z"/>
			<path class="st4" d="M1682.5,653.4c-0.6,0-1-0.4-1-1v-9.2c0.1-0.5,0.7-0.8,1.2-0.7c0.3,0.1,0.6,0.4,0.7,0.7v9.2
				C1683.4,653,1683,653.4,1682.5,653.4z"/>
			<path class="st4" d="M1699.5,653.4c-0.6,0-1-0.4-1-1v-9.2c0.1-0.5,0.7-0.8,1.2-0.7c0.3,0.1,0.6,0.4,0.7,0.7v9.2
				C1700.4,653,1700,653.4,1699.5,653.4z"/>
			<path class="st4" d="M1716.4,653.4c-0.1,0-0.3,0-0.4-0.1c-0.3-0.2-0.6-0.5-0.6-0.9v-9.2c0.1-0.5,0.7-0.8,1.2-0.7
				c0.3,0.1,0.6,0.4,0.7,0.7v9.2c0,0.1,0,0.1,0,0.2C1717.3,653.1,1716.9,653.4,1716.4,653.4z"/>
			<path class="st4" d="M1665.5,675c-0.6,0-1-0.4-1-1v-9.1c-0.1-0.5,0.2-1.1,0.7-1.2s1.1,0.2,1.2,0.7c0,0.2,0,0.4,0,0.5v9.2
				C1666.4,674.6,1666,675,1665.5,675z"/>
			<path class="st4" d="M1682.5,675c-0.6,0-1-0.4-1-1v-9.1c-0.1-0.5,0.2-1.1,0.7-1.2s1.1,0.2,1.2,0.7c0,0.2,0,0.4,0,0.5v9.2
				C1683.4,674.6,1683,675,1682.5,675z"/>
			<path class="st4" d="M1699.5,675c-0.6,0-1-0.4-1-1v-9.1c-0.1-0.5,0.2-1.1,0.7-1.2s1.1,0.2,1.2,0.7c0,0.2,0,0.4,0,0.5v9.2
				C1700.4,674.6,1700,675,1699.5,675z"/>
			<path class="st4" d="M1716.4,675c-0.6,0-1-0.4-1-1v-9.1c-0.1-0.5,0.2-1.1,0.7-1.2s1.1,0.2,1.2,0.7c0,0.2,0,0.4,0,0.5v9.2
				C1717.3,674.6,1716.9,675,1716.4,675z"/>
			<path class="st4" d="M1665.5,696.6c-0.6,0-1-0.4-1-1v-9.2c0.1-0.5,0.7-0.8,1.2-0.7c0.3,0.1,0.6,0.4,0.7,0.7v9.2
				C1666.5,696.1,1666,696.6,1665.5,696.6z"/>
			<path class="st4" d="M1682.5,696.6c-0.6,0-1-0.4-1-1v-9.2c0.1-0.5,0.6-0.9,1.1-0.8c0.3,0,0.5,0.2,0.7,0.4
				c0.1,0.1,0.1,0.3,0.1,0.4v9.2C1683.4,696.1,1683,696.6,1682.5,696.6z"/>
			<path class="st4" d="M1699.5,696.6c-0.6,0-1-0.4-1-1v-9.2c0.1-0.5,0.7-0.8,1.2-0.7c0.3,0.1,0.6,0.4,0.7,0.7v9.2
				C1700.4,696.1,1700,696.6,1699.5,696.6z"/>
			<path class="st4" d="M1716.4,696.6c-0.6,0-1-0.4-1-1v-9.2c0.1-0.5,0.7-0.8,1.2-0.7c0.3,0.1,0.6,0.4,0.7,0.7v9.2
				C1717.4,696.1,1716.9,696.6,1716.4,696.6z"/>
			<path class="st4" d="M1665.6,718.2c-0.5,0-1-0.4-1-0.9v-9.2c-0.1-0.5,0.2-1.1,0.7-1.2s1.1,0.2,1.2,0.7c0,0.2,0,0.4,0,0.5v9.2
				C1666.5,717.8,1666,718.2,1665.6,718.2L1665.6,718.2z"/>
			<path class="st4" d="M1682.5,718.2c-0.6,0-1-0.4-1-1V708c-0.1-0.5,0.2-1.1,0.7-1.2s1.1,0.2,1.2,0.7c0,0.2,0,0.4,0,0.5v9.2
				C1683.4,717.7,1683,718.2,1682.5,718.2z"/>
			<path class="st4" d="M1699.5,718.2c-0.6,0-1-0.4-1-1V708c-0.1-0.5,0.2-1.1,0.7-1.2s1.1,0.2,1.2,0.7c0,0.2,0,0.4,0,0.5v9.2
				C1700.4,717.7,1700,718.2,1699.5,718.2z"/>
			<path class="st4" d="M1716.4,718.2c-0.6,0-1-0.4-1-1V708c-0.1-0.5,0.2-1.1,0.7-1.2s1.1,0.2,1.2,0.7c0,0.2,0,0.4,0,0.5v9.2
				C1717.4,717.7,1716.9,718.2,1716.4,718.2z"/>
			<path class="st4" d="M1665.5,739.8c-0.6,0-1-0.4-1-1v-9.2c0.1-0.5,0.7-0.8,1.2-0.7c0.3,0.1,0.6,0.4,0.7,0.7v9.2
				C1666.5,739.3,1666,739.7,1665.5,739.8z"/>
			<path class="st4" d="M1682.5,739.8c-0.6,0-1-0.4-1-1v-9.2c0.1-0.5,0.7-0.8,1.2-0.7c0.3,0.1,0.6,0.4,0.7,0.7v9.2
				c0,0.2-0.1,0.4-0.2,0.5C1683.1,739.6,1682.8,739.7,1682.5,739.8z"/>
			<path class="st4" d="M1699.5,739.8c-0.6,0-1-0.4-1-1v-9.2c0.1-0.5,0.7-0.8,1.2-0.7c0.3,0.1,0.6,0.4,0.7,0.7v9.2
				C1700.4,739.3,1700,739.7,1699.5,739.8z"/>
			<path class="st4" d="M1716.4,739.8c-0.6,0-1-0.4-1-1v-9.2c0.1-0.5,0.7-0.8,1.2-0.7c0.3,0.1,0.6,0.4,0.7,0.7v9.2
				C1717.4,739.3,1716.9,739.7,1716.4,739.8z"/>
			<path class="st4" d="M1665.5,761.4c-0.6,0-1-0.4-1-1v-9.2c0.1-0.5,0.7-0.8,1.2-0.7c0.3,0.1,0.6,0.4,0.7,0.7v9.2
				C1666.5,760.9,1666,761.3,1665.5,761.4z"/>
			<path class="st4" d="M1682.5,761.4c-0.6,0-1-0.4-1-1v-9.2c0.1-0.5,0.7-0.8,1.2-0.7c0.3,0.1,0.6,0.4,0.7,0.7v9.2
				C1683.4,760.9,1683,761.3,1682.5,761.4z"/>
			<path class="st4" d="M1699.5,761.4c-0.6,0-1-0.4-1-1v-9.2c0-0.6,0.4-1,1-1s1,0.4,1,1v9.2C1700.5,760.9,1700,761.4,1699.5,761.4z"
				/>
			<path class="st4" d="M1716.4,761.4c-0.6,0-1-0.4-1-1v-9.2c0.1-0.5,0.7-0.8,1.2-0.7c0.3,0.1,0.6,0.4,0.7,0.7v9.2
				C1717.4,760.9,1716.9,761.3,1716.4,761.4z"/>
			<path class="st4" d="M1665.5,783c-0.6,0-1-0.4-1-1v-9.2c-0.1-0.5,0.2-1.1,0.7-1.2s1.1,0.2,1.2,0.7c0,0.2,0,0.4,0,0.5v9.2
				C1666.5,782.5,1666,783,1665.5,783z"/>
			<path class="st4" d="M1682.5,783c-0.6,0-1-0.4-1-1v-9.2c-0.1-0.5,0.2-1.1,0.7-1.2s1.1,0.2,1.2,0.7c0,0.2,0,0.4,0,0.5v9.2
				C1683.4,782.5,1683,783,1682.5,783z"/>
			<path class="st4" d="M1699.5,783c-0.6,0-1-0.4-1-1v-9.2c-0.1-0.5,0.2-1.1,0.7-1.2s1.1,0.2,1.2,0.7c0,0.2,0,0.4,0,0.5v9.2
				C1700.4,782.5,1700,783,1699.5,783z"/>
			<path class="st4" d="M1716.4,783c-0.6,0-1-0.4-1-1v-9.2c0-0.3,0.2-0.6,0.5-0.8c0.1-0.1,0.3-0.2,0.5-0.2c0.5,0,0.9,0.4,0.9,0.9
				v0.1v9.1C1717.3,782.5,1716.9,783,1716.4,783z"/>
			<path class="st4" d="M1699.5,804.5c-0.6,0-1-0.4-1-1v-9.2c0.1-0.5,0.7-0.8,1.2-0.7c0.3,0.1,0.6,0.4,0.7,0.7v9.2
				C1700.4,804.1,1700,804.5,1699.5,804.5z"/>
			<path class="st4" d="M1716.4,804.5c-0.6,0-1-0.4-1-1v-9.2c0.1-0.5,0.7-0.8,1.2-0.7c0.3,0.1,0.6,0.4,0.7,0.7v9.2
				C1717.4,804.1,1716.9,804.5,1716.4,804.5z"/>
			<path class="st4" d="M1699.5,826.1c-0.6,0-1-0.4-1-1V816c-0.1-0.5,0.2-1.1,0.7-1.2s1.1,0.2,1.2,0.7c0,0.2,0,0.4,0,0.5v9.2
				C1700.4,825.7,1700,826.1,1699.5,826.1z"/>
			<path class="st4" d="M1716.4,826.1c-0.6,0-1-0.4-1-1V816c-0.1-0.5,0.2-1.1,0.7-1.2s1.1,0.2,1.2,0.7c0,0.2,0,0.4,0,0.5v9.2
				C1717.3,825.7,1716.9,826.1,1716.4,826.1z"/>
			<path class="st4" d="M1699.5,847.7c-0.6,0-1-0.4-1-1v-9.2c0.1-0.5,0.7-0.8,1.2-0.7c0.3,0.1,0.6,0.4,0.7,0.7v9.2
				C1700.4,847.2,1700,847.7,1699.5,847.7z"/>
			<path class="st4" d="M1716.4,847.7c-0.6,0-1-0.4-1-1v-9.2c0.1-0.5,0.7-0.8,1.2-0.7c0.3,0.1,0.6,0.4,0.7,0.7v9.2
				C1717.4,847.2,1716.9,847.7,1716.4,847.7z"/>
			<path class="st4" d="M1699.5,869.3c-0.6,0-1-0.4-1-1v-9.2c0.1-0.5,0.7-0.8,1.2-0.7c0.3,0.1,0.6,0.4,0.7,0.7v9.2
				C1700.4,868.8,1700,869.3,1699.5,869.3z"/>
			<path class="st4" d="M1716.4,869.3c-0.6,0-1-0.4-1-1v-9.2c0.1-0.5,0.7-0.8,1.2-0.7c0.3,0.1,0.6,0.4,0.7,0.7v9.2
				C1717.4,868.8,1716.9,869.3,1716.4,869.3z"/>
			<path class="st4" d="M272,754.5c-0.5,0.1-1.1-0.2-1.2-0.7s0.2-1.1,0.7-1.2c0.2,0,0.4,0,0.5,0h11.2c0.5,0.1,0.8,0.7,0.7,1.2
				c-0.1,0.3-0.4,0.6-0.7,0.7H272z"/>
			<path class="st4" d="M272,768.3c-0.5,0.2-1.1-0.1-1.2-0.7c-0.2-0.5,0.1-1.1,0.7-1.2c0.2-0.1,0.4-0.1,0.6,0h11.2
				c0.5,0.2,0.8,0.7,0.7,1.2c-0.1,0.3-0.4,0.6-0.7,0.7H272z"/>
			<path class="st4" d="M272,782.2c-0.5,0.1-1.1-0.2-1.2-0.7s0.2-1.1,0.7-1.2c0.2,0,0.4,0,0.5,0h11.2c0.5,0.1,0.8,0.7,0.7,1.2
				c-0.1,0.3-0.4,0.6-0.7,0.7H272z"/>
			<path class="st4" d="M272,796c-0.5,0.1-1.1-0.2-1.2-0.7s0.2-1.1,0.7-1.2c0.2,0,0.4,0,0.5,0h11.2c0.5,0.1,0.8,0.7,0.7,1.2
				c-0.1,0.3-0.4,0.6-0.7,0.7H272z"/>
			<path class="st4" d="M272,809.9c-0.5,0.1-1.1-0.2-1.2-0.7s0.2-1.1,0.7-1.2c0.2,0,0.4,0,0.5,0h11.2c0.5,0.1,0.8,0.7,0.7,1.2
				c-0.1,0.3-0.4,0.6-0.7,0.7H272z"/>
			<path class="st4" d="M272,823.8c-0.5,0.1-1.1-0.2-1.2-0.7s0.2-1.1,0.7-1.2c0.2,0,0.4,0,0.5,0h11.2c0.5,0.1,0.8,0.7,0.7,1.2
				c-0.1,0.3-0.4,0.6-0.7,0.7H272z"/>
			<path class="st4" d="M272,837.6c-0.5,0.1-1.1-0.2-1.2-0.7s0.2-1.1,0.7-1.2c0.2,0,0.4,0,0.5,0h11.2c0.5,0.1,0.8,0.7,0.7,1.2
				c-0.1,0.3-0.4,0.6-0.7,0.7H272z"/>
			<path class="st4" d="M272,851.5c-0.5,0.1-1.1-0.2-1.2-0.7s0.2-1.1,0.7-1.2c0.2,0,0.4,0,0.5,0h11.2c0.5,0.1,0.8,0.7,0.7,1.2
				c-0.1,0.3-0.4,0.6-0.7,0.7H272z"/>
			<path class="st4" d="M272,865.3c-0.5,0.1-1.1-0.2-1.2-0.7s0.2-1.1,0.7-1.2c0.2,0,0.4,0,0.5,0h11.2c0.5,0.1,0.8,0.7,0.7,1.2
				c-0.1,0.3-0.4,0.6-0.7,0.7H272z"/>
			<path class="st4" d="M298.9,754.5c-0.5-0.1-0.8-0.7-0.7-1.2c0.1-0.3,0.4-0.6,0.7-0.7H310c0.5,0.1,0.8,0.7,0.7,1.2
				c-0.1,0.3-0.4,0.6-0.7,0.7H298.9z"/>
			<path class="st4" d="M298.9,768.3c-0.5-0.2-0.8-0.7-0.7-1.2c0.1-0.3,0.4-0.6,0.7-0.7H310c0.5,0.2,0.8,0.7,0.7,1.2
				c-0.1,0.3-0.4,0.6-0.7,0.7H298.9z"/>
			<path class="st4" d="M298.9,782.2c-0.5-0.1-0.8-0.7-0.7-1.2c0.1-0.3,0.4-0.6,0.7-0.7H310c0.5,0.1,0.8,0.7,0.7,1.2
				c-0.1,0.3-0.4,0.6-0.7,0.7H298.9z"/>
			<path class="st4" d="M298.9,796c-0.5-0.1-0.8-0.7-0.7-1.2c0.1-0.3,0.4-0.6,0.7-0.7H310c0.5,0.1,0.8,0.7,0.7,1.2
				c-0.1,0.3-0.4,0.6-0.7,0.7H298.9z"/>
			<path class="st4" d="M298.9,809.9c-0.5-0.1-0.8-0.7-0.7-1.2c0.1-0.3,0.4-0.6,0.7-0.7H310c0.5,0.1,0.8,0.7,0.7,1.2
				c-0.1,0.3-0.4,0.6-0.7,0.7H298.9z"/>
			<path class="st4" d="M298.9,823.8c-0.5-0.1-0.8-0.7-0.7-1.2c0.1-0.3,0.4-0.6,0.7-0.7H310c0.5,0.1,0.8,0.7,0.7,1.2
				c-0.1,0.3-0.4,0.6-0.7,0.7H298.9z"/>
			<path class="st4" d="M298.9,837.6c-0.5-0.1-0.8-0.7-0.7-1.2c0.1-0.3,0.4-0.6,0.7-0.7H310c0.5,0.1,0.8,0.7,0.7,1.2
				c-0.1,0.3-0.4,0.6-0.7,0.7H298.9z"/>
			<path class="st4" d="M298.9,851.5c-0.5-0.1-0.8-0.7-0.7-1.2c0.1-0.3,0.4-0.6,0.7-0.7H310c0.5,0.1,0.8,0.7,0.7,1.2
				c-0.1,0.3-0.4,0.6-0.7,0.7H298.9z"/>
			<path class="st4" d="M298.9,865.3c-0.5-0.1-0.8-0.7-0.7-1.2c0.1-0.3,0.4-0.6,0.7-0.7H310c0.5,0.1,0.8,0.7,0.7,1.2
				c-0.1,0.3-0.4,0.6-0.7,0.7H298.9z"/>
			<path class="st4" d="M325.8,754.5c-0.5,0.1-1.1-0.2-1.2-0.7s0.2-1.1,0.7-1.2c0.2,0,0.4,0,0.5,0H337c0.5,0.1,0.8,0.7,0.7,1.2
				c-0.1,0.3-0.4,0.6-0.7,0.7H325.8z"/>
			<path class="st4" d="M325.8,768.3c-0.5,0.2-1.1-0.1-1.2-0.7c-0.2-0.5,0.1-1.1,0.7-1.2c0.2-0.1,0.4-0.1,0.6,0h11.2
				c0.5,0.2,0.8,0.7,0.7,1.2c-0.1,0.3-0.4,0.6-0.7,0.7H325.8z"/>
			<path class="st4" d="M325.8,782.2c-0.5,0.1-1.1-0.2-1.2-0.7s0.2-1.1,0.7-1.2c0.2,0,0.4,0,0.5,0H337c0.5,0.1,0.8,0.7,0.7,1.2
				c-0.1,0.3-0.4,0.6-0.7,0.7H325.8z"/>
			<path class="st4" d="M325.8,796c-0.5,0.1-1.1-0.2-1.2-0.7s0.2-1.1,0.7-1.2c0.2,0,0.4,0,0.5,0H337c0.5,0.1,0.8,0.7,0.7,1.2
				c-0.1,0.3-0.4,0.6-0.7,0.7H325.8z"/>
			<path class="st4" d="M325.8,809.9c-0.5,0.1-1.1-0.2-1.2-0.7s0.2-1.1,0.7-1.2c0.2,0,0.4,0,0.5,0H337c0.5,0.1,0.8,0.7,0.7,1.2
				c-0.1,0.3-0.4,0.6-0.7,0.7H325.8z"/>
			<path class="st4" d="M325.8,823.8c-0.5,0.1-1.1-0.2-1.2-0.7s0.2-1.1,0.7-1.2c0.2,0,0.4,0,0.5,0H337c0.5,0.1,0.8,0.7,0.7,1.2
				c-0.1,0.3-0.4,0.6-0.7,0.7H325.8z"/>
			<path class="st4" d="M325.8,837.6c-0.5,0.1-1.1-0.2-1.2-0.7s0.2-1.1,0.7-1.2c0.2,0,0.4,0,0.5,0H337c0.5,0.1,0.8,0.7,0.7,1.2
				c-0.1,0.3-0.4,0.6-0.7,0.7H325.8z"/>
			<path class="st4" d="M325.8,851.5c-0.5,0.1-1.1-0.2-1.2-0.7s0.2-1.1,0.7-1.2c0.2,0,0.4,0,0.5,0H337c0.5,0.1,0.8,0.7,0.7,1.2
				c-0.1,0.3-0.4,0.6-0.7,0.7H325.8z"/>
			<path class="st4" d="M325.8,865.3c-0.5,0.1-1.1-0.2-1.2-0.7s0.2-1.1,0.7-1.2c0.2,0,0.4,0,0.5,0H337c0.5,0.1,0.8,0.7,0.7,1.2
				c-0.1,0.3-0.4,0.6-0.7,0.7H325.8z"/>
			<path class="st4" d="M1569.2,574.5c-0.2,0-0.5-0.1-0.7-0.3c-3.3-3.3-7.5-5.7-12-6.9c-0.9-0.2-1.8-0.4-2.7-0.5h-0.6h-0.2
				c-0.5,0-0.9-0.4-0.9-0.9c0-0.3,0.1-0.5,0.2-0.7c0.2-0.2,0.4-0.3,0.7-0.3h0.2c0.9,0,1.8,0.1,2.6,0.3c0.8,0.2,1.7,0.4,2.5,0.6
				c3.4,1.1,6.6,2.9,9.4,5.2l1.3,1l1.2-1.1c2.9-2.3,6.1-4.4,9.4-6.2c0.1-0.1,0.3-0.1,0.5-0.1c0.6,0,1,0.5,1,1c0,0.1,0,0.1,0,0.2
				c-0.1,0.2-0.2,0.5-0.5,0.6c-7.6,4.3-9.7,6.4-10.3,7.2l-0.1,0.2l-0.1,0.2c-0.1,0.2-0.3,0.4-0.6,0.5
				C1569.5,574.5,1569.4,574.5,1569.2,574.5z"/>
			<path class="st4" d="M1465.2,569.7c-0.1,0-0.2,0-0.3-0.1c-1.8-1.8-4-3-6.4-3.7c-0.5-0.1-1-0.2-1.4-0.2h-0.3
				c-0.2,0-0.5-0.1-0.5-0.4l0,0c0-0.2,0.2-0.4,0.4-0.4l0,0l0,0c0.5,0,1,0.1,1.4,0.2c0.4,0.1,0.9,0.2,1.3,0.3c1.8,0.6,3.5,1.5,5,2.7
				l0.7,0.6l0.7-0.6c1.6-1.2,3.2-2.3,5-3.2c0.1,0,0.1-0.1,0.2-0.1c0.2,0,0.3,0.1,0.4,0.2c0,0.1,0,0.2,0,0.3s-0.1,0.2-0.2,0.2
				c-4,2.3-5.2,3.4-5.5,3.8l-0.1,0.1C1465.5,569.6,1465.4,569.7,1465.2,569.7L1465.2,569.7z"/>
			<path class="st4" d="M244.4,639.4c-0.1,0-0.2,0-0.3,0c-0.3-0.1-0.5-0.3-0.6-0.5l-0.1-0.2l-0.1-0.2c-0.6-0.7-2.8-2.9-10.3-7.2
				c-0.2-0.1-0.4-0.3-0.5-0.6c-0.1-0.2,0-0.5,0.1-0.7c0.2-0.3,0.5-0.5,0.9-0.5c0.2,0,0.3,0,0.5,0.1c3.3,1.8,6.5,3.8,9.4,6.2l1.2,1.1
				l1.3-1c7.2-5.8,13.4-6.1,14.6-6.1h0.1c0.3,0,0.5,0.1,0.7,0.3s0.3,0.4,0.2,0.7c0,0.5-0.5,0.9-1,0.9h-0.1c-1.2,0-7.8,0.3-15.3,7.4
				C244.8,639.4,244.6,639.4,244.4,639.4z"/>
			<path class="st4" d="M609.8,484.8c-0.1,0-0.2,0-0.2,0c-0.3-0.1-0.5-0.3-0.6-0.5l-0.1-0.2l-0.1-0.2c-0.6-0.7-2.8-2.9-10.3-7.2
				c-0.2-0.1-0.4-0.3-0.5-0.6c-0.1-0.5,0.2-1.1,0.8-1.2c0.1,0,0.1,0,0.2,0c0.2,0,0.3,0,0.5,0.1c3.3,1.8,6.5,3.8,9.4,6.2l1.2,1.1
				l1.3-1c7.2-5.8,13.4-6.1,14.6-6.1h0.2c0.3,0,0.5,0.1,0.7,0.3c0.2,0.2,0.3,0.4,0.3,0.7c0,0.5-0.5,0.9-1,0.9H626
				c-1.2,0-7.8,0.4-15.3,7.4C610.3,484.7,610,484.8,609.8,484.8z"/>
			<path class="st4" d="M796.9,296.8c-0.1,0-0.2,0-0.2,0c-0.3-0.1-0.5-0.3-0.6-0.5l-0.1-0.2l-0.1-0.2c-0.6-0.7-2.8-2.9-10.3-7.2
				c-0.2-0.1-0.4-0.3-0.5-0.6c-0.1-0.5,0.2-1.1,0.8-1.2h0.1c0.2,0,0.3,0,0.5,0.1c3.3,1.8,6.5,3.8,9.4,6.2l1.2,1.1l1.3-1
				c7.2-5.8,13.4-6.1,14.6-6.1h0.2c0.5,0,0.9,0.5,0.9,1s-0.5,0.9-1,0.9h-0.2c-1.2,0-7.8,0.4-15.3,7.4
				C797.4,296.7,797.2,296.8,796.9,296.8z"/>
			<path class="st4" d="M1743.6,717.3c-0.5,0.1-1.1-0.2-1.2-0.7s0.2-1.1,0.7-1.2c0.2,0,0.4,0,0.5,0h145c0.5-0.1,1.1,0.2,1.2,0.7
				s-0.2,1.1-0.7,1.2c-0.2,0-0.4,0-0.5,0H1743.6z"/>
			<path class="st4" d="M1743.6,740.3c-0.5,0.1-1.1-0.2-1.2-0.7s0.2-1.1,0.7-1.2c0.2,0,0.4,0,0.5,0h18.6c0.5,0.1,0.8,0.7,0.7,1.2
				c-0.1,0.3-0.4,0.6-0.7,0.7H1743.6z"/>
			<path class="st4" d="M1743.6,765.4c-0.5,0.1-1.1-0.2-1.2-0.7s0.2-1.1,0.7-1.2c0.2,0,0.4,0,0.5,0h18.6c0.5,0.1,0.8,0.7,0.7,1.2
				c-0.1,0.3-0.4,0.6-0.7,0.7H1743.6z"/>
			<path class="st4" d="M1743.6,788.2c-0.5,0.1-1.1-0.2-1.2-0.7s0.2-1.1,0.7-1.2c0.2,0,0.4,0,0.5,0h18.6c0.5,0.1,0.8,0.7,0.7,1.2
				c-0.1,0.3-0.4,0.6-0.7,0.7H1743.6z"/>
			<path class="st4" d="M1743.6,811.8c-0.5,0.1-1.1-0.2-1.2-0.7s0.2-1.1,0.7-1.2c0.2,0,0.4,0,0.5,0h18.6c0.5,0.1,0.8,0.7,0.7,1.2
				c-0.1,0.3-0.4,0.6-0.7,0.7H1743.6z"/>
			<path class="st4" d="M1743.6,835.4c-0.5,0.1-1.1-0.2-1.2-0.7s0.2-1.1,0.7-1.2c0.2,0,0.4,0,0.5,0h18.6c0.5,0.1,0.8,0.7,0.7,1.2
				c-0.1,0.3-0.4,0.6-0.7,0.7H1743.6z"/>
			<path class="st4" d="M1743.6,859.8c-0.5,0.1-1.1-0.2-1.2-0.7s0.2-1.1,0.7-1.2c0.2,0,0.4,0,0.5,0h18.6c0.5,0.1,0.8,0.7,0.7,1.2
				c-0.1,0.3-0.4,0.6-0.7,0.7H1743.6z"/>
			<path class="st4" d="M1776.6,740.3c-0.5-0.1-0.8-0.7-0.7-1.2c0.1-0.3,0.4-0.6,0.7-0.7h18.6c0.5-0.1,1.1,0.2,1.2,0.7
				s-0.2,1.1-0.7,1.2c-0.2,0-0.4,0-0.5,0H1776.6z"/>
			<path class="st4" d="M1776.6,765.4c-0.5-0.1-0.8-0.7-0.7-1.2c0.1-0.3,0.4-0.6,0.7-0.7h18.6c0.5-0.1,1.1,0.2,1.2,0.7
				s-0.2,1.1-0.7,1.2c-0.2,0-0.4,0-0.5,0H1776.6z"/>
			<path class="st4" d="M1776.6,788.2c-0.5-0.1-0.8-0.7-0.7-1.2c0.1-0.3,0.4-0.6,0.7-0.7h18.6c0.5-0.1,1.1,0.2,1.2,0.7
				s-0.2,1.1-0.7,1.2c-0.2,0-0.4,0-0.5,0H1776.6z"/>
			<path class="st4" d="M1776.6,811.8c-0.5-0.1-0.8-0.7-0.7-1.2c0.1-0.3,0.4-0.6,0.7-0.7h18.6c0.5-0.1,1.1,0.2,1.2,0.7
				s-0.2,1.1-0.7,1.2c-0.2,0-0.4,0-0.5,0H1776.6z"/>
			<path class="st4" d="M1776.6,835.4c-0.5-0.1-0.8-0.7-0.7-1.2c0.1-0.3,0.4-0.6,0.7-0.7h18.6c0.5-0.1,1.1,0.2,1.2,0.7
				s-0.2,1.1-0.7,1.2c-0.2,0-0.4,0-0.5,0H1776.6z"/>
			<path class="st4" d="M1776.6,859.8c-0.5-0.1-0.8-0.7-0.7-1.2c0.1-0.3,0.4-0.6,0.7-0.7h18.6c0.5-0.1,1.1,0.2,1.2,0.7
				s-0.2,1.1-0.7,1.2c-0.2,0-0.4,0-0.5,0H1776.6z"/>
			<path class="st4" d="M1808,740.3c-0.5,0.1-1.1-0.2-1.2-0.7s0.2-1.1,0.7-1.2c0.2,0,0.4,0,0.5,0h18.6c0.5,0.1,0.8,0.7,0.7,1.2
				c-0.1,0.3-0.4,0.6-0.7,0.7H1808z"/>
			<path class="st4" d="M1808,765.4c-0.5,0.1-1.1-0.2-1.2-0.7s0.2-1.1,0.7-1.2c0.2,0,0.4,0,0.5,0h18.6c0.5,0.1,0.8,0.7,0.7,1.2
				c-0.1,0.3-0.4,0.6-0.7,0.7H1808z"/>
			<path class="st4" d="M1808,788.2c-0.5,0.1-1.1-0.2-1.2-0.7s0.2-1.1,0.7-1.2c0.2,0,0.4,0,0.5,0h18.6c0.4,0,0.8,0.3,0.9,0.7
				c0,0.1,0.1,0.2,0.1,0.3c0,0.6-0.4,1-1,1L1808,788.2z"/>
			<path class="st4" d="M1808,811.8c-0.5-0.2-0.8-0.7-0.7-1.2c0.1-0.3,0.4-0.6,0.7-0.7h18.6c0.5,0.1,0.8,0.7,0.7,1.2
				c-0.1,0.3-0.4,0.6-0.7,0.7H1808z"/>
			<path class="st4" d="M1808,835.4c-0.5,0.1-1.1-0.2-1.2-0.7s0.2-1.1,0.7-1.2c0.2,0,0.4,0,0.5,0h18.6c0.5,0.1,0.8,0.7,0.7,1.2
				c-0.1,0.3-0.4,0.6-0.7,0.7H1808z"/>
			<path class="st4" d="M1808,859.8c-0.5,0.1-1.1-0.2-1.2-0.7s0.2-1.1,0.7-1.2c0.2,0,0.4,0,0.5,0h18.6c0.5,0.1,0.8,0.7,0.7,1.2
				c-0.1,0.3-0.4,0.6-0.7,0.7H1808z"/>
			<path class="st4" d="M1838,740.3c-0.5-0.1-0.8-0.7-0.7-1.2c0.1-0.3,0.4-0.6,0.7-0.7h18.6c0.5,0.1,0.8,0.7,0.7,1.2
				c-0.1,0.3-0.4,0.6-0.7,0.7H1838z"/>
			<path class="st4" d="M1838,765.4c-0.5-0.1-0.8-0.7-0.7-1.2c0.1-0.3,0.4-0.6,0.7-0.7h18.6c0.5,0.1,0.8,0.7,0.7,1.2
				c-0.1,0.3-0.4,0.6-0.7,0.7H1838z"/>
			<path class="st4" d="M1838,788.2c-0.5-0.1-0.8-0.7-0.7-1.2c0.1-0.3,0.4-0.6,0.7-0.7h18.6c0.5,0.1,0.8,0.7,0.7,1.2
				c-0.1,0.3-0.4,0.6-0.7,0.7H1838z"/>
			<path class="st4" d="M1838,811.8c-0.5-0.1-0.8-0.7-0.7-1.2c0.1-0.3,0.4-0.6,0.7-0.7h18.6c0.5,0.1,0.8,0.7,0.7,1.2
				c-0.1,0.3-0.4,0.6-0.7,0.7H1838z"/>
			<path class="st4" d="M1838,835.4c-0.5-0.1-0.8-0.7-0.7-1.2c0.1-0.3,0.4-0.6,0.7-0.7h18.6c0.5,0.1,0.8,0.7,0.7,1.2
				c-0.1,0.3-0.4,0.6-0.7,0.7H1838z"/>
			<path class="st4" d="M1838,859.8c-0.5-0.1-0.8-0.7-0.7-1.2c0.1-0.3,0.4-0.6,0.7-0.7h18.6c0.5,0.1,0.8,0.7,0.7,1.2
				c-0.1,0.3-0.4,0.6-0.7,0.7H1838z"/>
			<path class="st4" d="M1870,740.3c-0.5,0.1-1.1-0.2-1.2-0.7s0.2-1.1,0.7-1.2c0.2,0,0.4,0,0.5,0h18.6c0.5-0.1,1.1,0.2,1.2,0.7
				s-0.2,1.1-0.7,1.2c-0.2,0-0.4,0-0.5,0H1870z"/>
			<path class="st4" d="M1870,765.4c-0.5,0.1-1.1-0.2-1.2-0.7s0.2-1.1,0.7-1.2c0.2,0,0.4,0,0.5,0h18.6c0.5-0.1,1.1,0.2,1.2,0.7
				s-0.2,1.1-0.7,1.2c-0.2,0-0.4,0-0.5,0H1870z"/>
			<path class="st4" d="M1870,788.2c-0.5,0.1-1.1-0.2-1.2-0.7s0.2-1.1,0.7-1.2c0.2,0,0.4,0,0.5,0h18.6c0.5-0.1,1.1,0.2,1.2,0.7
				s-0.2,1.1-0.7,1.2c-0.2,0-0.4,0-0.5,0H1870z"/>
			<path class="st4" d="M1870,811.8c-0.5,0.1-1.1-0.2-1.2-0.7s0.2-1.1,0.7-1.2c0.2,0,0.4,0,0.5,0h18.6c0.5-0.1,1.1,0.2,1.2,0.7
				s-0.2,1.1-0.7,1.2c-0.2,0-0.4,0-0.5,0H1870z"/>
			<path class="st4" d="M1870,835.4c-0.5,0.1-1.1-0.2-1.2-0.7s0.2-1.1,0.7-1.2c0.2,0,0.4,0,0.5,0h18.6c0.6,0,1,0.4,1,1
				c0,0.4-0.2,0.7-0.6,0.9c-0.1,0.1-0.3,0.1-0.4,0.1L1870,835.4z"/>
			<path class="st4" d="M1581.9,884.8H-37.3c-0.6,0-1-0.4-1-1s0.4-1,1-1H5v-48.4c0-0.6,0.4-1,1-1h122.7v-32.1c0-0.6,0.4-1,1-1h7.3
				v-16.7c0-0.6,0.4-1,1-1h57.4v-40.8c0-0.6,0.4-1,1-1h3.6v-19.5c0-0.6,0.4-1,1-1h6.4v-28.4c0-0.1,0-0.1,0.1-0.1s0.1,0,0.1,0.1v28.4
				h6.4c0.6,0,1,0.4,1,1v8.9h21.9c0.6,0,1,0.4,1,1v9.7h4.5c0.6,0,1,0.4,1,1V883h14.2V738.6c0-0.6,0.4-1,1-1H271v-13c0-0.6,0.4-1,1-1
				h12.7v-13c0-0.3,0.2-0.6,0.5-0.8l0.9-0.5l0.1-1c0.4-5.4,2.2-10.6,5.1-15.2c2.8-4.3,6.5-7,10.5-7.8l1.5-0.3v-29.5
				c0.1-0.5,0.7-0.8,1.2-0.7c0.3,0.1,0.6,0.4,0.7,0.7V685l1.6,0.3c4.2,0.8,8,3.5,10.9,7.9c3,4.7,4.7,10,5.1,15.6l0.1,0.7l0.5,0.5
				c0.2,0.2,0.3,0.4,0.3,0.7v13h13.5c0.6,0,1,0.4,1,1v13h14c0.6,0,1,0.4,1,1v144.1h31.6V736l-13-8.8c-0.2-0.2-0.4-0.4-0.4-0.7
				c0-0.1,0-0.2,0-0.2v-0.2v-40.7v-0.1c0-0.1,0-0.1,0-0.2l0.1-0.2l0.1-0.1l0.1-0.1l0.2-0.1l13.5-7.8v-11.4c0-0.6,0.4-1,1-1H406v-8.5
				c0.1-0.5,0.7-0.8,1.2-0.7c0.3,0.1,0.6,0.4,0.7,0.7v8.5h7.4v-8.5c0.1-0.5,0.7-0.8,1.2-0.7c0.3,0.1,0.6,0.4,0.7,0.7v8.5h8.2v-8.5
				c0.1-0.5,0.7-0.8,1.2-0.7c0.3,0.1,0.6,0.4,0.7,0.7v8.5h8.9v-8.5c0.1-0.5,0.7-0.8,1.2-0.7c0.3,0.1,0.6,0.4,0.7,0.7v8.5h7.4v-8.5
				c0.1-0.5,0.7-0.8,1.2-0.7c0.3,0.1,0.6,0.4,0.7,0.7v8.5h8.1v-8.5c0.1-0.5,0.7-0.9,1.2-0.7c0.4,0.1,0.6,0.4,0.7,0.7v8.5h8.2V588
				c0-0.6,0.4-1,1-1h85.8c0.6,0,1,0.4,1,1v88.2h28.8c0.6,0,1,0.4,1,1v205.6h703.6v-24.4c0-0.6,0.4-1,1-1h71.4c0.6,0,1,0.4,1,1v24.4
				h28.7L1396,537c0-0.5,0.5-0.9,1-0.9h105.7c0.5,0,1,0.4,1,1l4.3,267.6l1.6,0.3c7.2,1.4,12.8,6.7,14.1,13.4c0.5,2.7,0.3,5.5-0.6,8
				c-1.1,3.4-3.3,6.3-6.2,8.4l-0.9,0.7l0.1,1.1c0,0.5,0.1,1,0.1,1.5c0,5.4-2.4,10.6-6.6,14.2l-0.7,0.6l0.5,30.1h11l40.7-36.1V735.1
				l-1.1-0.5c-19-9.7-26.6-32.9-16.9-51.9c3.7-7.3,9.6-13.2,16.9-16.9l1.1-0.5v-14.4c0-0.6,0.4-1,1-1h7.8V637c0-0.6,0.4-1,1-1h5.8
				v-21.3c0.1-0.5,0.7-0.8,1.2-0.7c0.3,0.1,0.6,0.4,0.7,0.7V636h5.8c0.6,0,1,0.4,1,1v12.9h7.8c0.6,0,1,0.4,1,1v14.4l1.1,0.5
				c19,9.7,26.6,32.9,16.9,51.9c-3.7,7.3-9.6,13.2-16.9,16.9l-1.1,0.5v70.5h53.2V630.9c0-0.6,0.4-1,1-1h14.2v-22.8c0-0.6,0.4-1,1-1
				h10.9v-20.2c0-0.6,0.4-1,1-1h29c0.6,0,1,0.4,1,1v20.2h11.2c0.6,0,1,0.4,1,1V630h16.4c0.6,0,1,0.4,1,1v59.3h168.4c0.6,0,1,0.4,1,1
				v155l1.3,0.5c3.9,1.5,7.3,4.1,9.7,7.5l0.7,1l1.2-0.1c0.7-0.1,1.5-0.1,2.2-0.1h0.2c6.3,0,12.4,2.7,16.7,7.3
				c4.6,4.9,7.1,11.3,7.2,18c0,0.1,0,2.6,0,2.6h32c0.5-0.1,1.1,0.2,1.2,0.7s-0.2,1.1-0.7,1.2c-0.2,0-0.4,0-0.5,0h-386l-3.8,3.8
				L1581.9,884.8z M1898.8,847.4c-1.2,0-2.4,0.1-3.5,0.4c-1.6,0.3-3.1,0.9-4.5,1.6c-2.4,1.3-4.5,3.1-6.2,5.2
				c-0.6,0.8-1.2,1.7-1.7,2.6l-0.1,0.2c-0.1,0.1-0.2,0.3-0.2,0.4c-0.5,1-0.9,2.1-1.3,3.2c-1,3.3-1.2,6.8-0.6,10.1
				c0.3,1.7,0.8,3.3,1.5,4.9c0.2,0.5,0,1-0.4,1.2c-0.9,0.5-1.8,1.1-2.6,1.8l-4,3.5h66v-2.4c0-6.2-2.4-12.2-6.7-16.7
				c-3.9-4.3-9.5-6.7-15.3-6.7h-0.2c-1.2,0-2.5,0.1-3.7,0.4h-0.2c-0.3,0-0.7-0.2-0.8-0.5c-1.8-3.1-4.3-5.6-7.4-7.2
				c-1.1-0.6-2.2-1-3.3-1.4c-1.1-0.3-2.2-0.5-3.3-0.6C1899.9,847.5,1899.3,847.4,1898.8,847.4z M1727.7,882.7h146.4l0.6-0.9
				c1.1-1.8,2.6-3.4,4.3-4.7l1.1-0.8l-0.4-1.3c-0.3-1-0.6-2.1-0.8-3.2c-0.6-3.1-0.5-6.4,0.2-9.5l0.6-2.4h-9.7
				c-0.5,0.1-1.1-0.2-1.2-0.7s0.2-1.1,0.7-1.2c0.2,0,0.4,0,0.5,0h9.8l1.4-1.4c2-3.7,5-6.7,8.7-8.7c1.5-0.8,3.2-1.4,4.9-1.8h0.1
				c1.3-0.3,2.6-0.4,3.8-0.4c0.5,0,0.9,0,1.4,0l2.1,0.2V692.2h-174.6L1727.7,882.7L1727.7,882.7z M1682.5,793.4c0.6,0,1,0.4,1,1v9.2
				c0,0.4-0.2,0.8-0.6,0.9l-1.3,0.5l0.1,1.5v0.2v8l1.2,0.5c0.4,0.2,0.6,0.5,0.6,0.9v9.2c0,0.4-0.2,0.7-0.6,0.9l-1.2,0.5v9.6l1.2,0.5
				c0.4,0.2,0.6,0.5,0.6,0.9v9.2c0,0.4-0.2,0.7-0.6,0.9l-1.2,0.5v9.6l1.2,0.5c0.4,0.2,0.6,0.5,0.6,0.9v9.2c0,0.4-0.2,0.7-0.6,0.9
				l-1.2,0.5v12.9h44.1V691.2c0-0.6,0.4-1,1-1h6.1v-58.3h-83.6v173.6h15.4v-11.1c0.1-0.5,0.7-0.8,1.2-0.7c0.3,0.1,0.6,0.4,0.7,0.7
				v11.1h15v-11.1C1681.6,793.9,1682,793.5,1682.5,793.4L1682.5,793.4z M1634.6,882.7h45.2v-75.2H1594v10.2h54.1
				c0.5,0.1,0.9,0.5,0.9,1V830c0,0.5-0.4,0.9-0.9,1h-0.2H1594v7.7h54.1c0.5,0.1,0.9,0.5,0.9,1V851c0,0.5-0.4,1-0.9,1h-0.2h-48.1
				l8.7,7.8h39.5c0.5,0.1,0.9,0.5,0.9,1V872c0,0.5-0.4,1-0.9,1h-24.6L1634.6,882.7z M1555.4,882.7h76.2l-38.9-34.5h-16.1
				L1555.4,882.7z M1523.5,882.7h29.7l21.2-34.5h-11.9L1523.5,882.7z M1504.2,855.5c-2.2,1-4.5,1.6-6.9,1.9l-1.8,0.2v25.1h11.9
				l-0.5-28.3L1504.2,855.5z M1450,796.4v86.2h43.6v-25.1l-1.7-0.2c-10.2-1.4-17.9-9.7-17.9-19.3c0-4.1,1.4-8.1,3.9-11.3l1.3-1.7
				l-1.7-1.2c-3.7-2.5-6-6.6-6-11.1c0-7.6,6.6-13.8,14.8-13.8c3.3,0,6.4,1,9.1,2.9c1.1,0.8,2.1,1.7,3,2.8l0.4,0.5l0.5,0.5l1.2-0.4
				c0.3-0.1,0.7-0.2,1-0.2l0.3-0.1l0.4-0.1c0.2,0,0.4-0.1,0.5-0.1c0.5-0.1,1.1-0.2,1.6-0.2l1.8-0.2l-4.8-266.5h-8.8v2
				c-0.2,42-4.4,83.5-11.6,113.9c-0.5,2-1,4-1.5,6c-0.2,0.8-0.4,1.6-0.7,2.5c-9.2,33.7-19.8,42.5-27.2,43.9l-1.6,0.3v18.8
				c-0.1,0.5-0.7,0.8-1.2,0.7c-0.3-0.1-0.6-0.4-0.7-0.7v-18.8l-1.6-0.3c-14.8-2.9-24.2-30.1-29.4-52.4
				c-7.1-30.3-11.3-71.8-11.5-113.9v-2h-8l-6.9,344.7h57.4V754.4v-0.2c0.2-0.5,0.8-0.8,1.3-0.5c0.3,0.1,0.5,0.4,0.6,0.7v41.5
				l0.3,0.3L1450,796.4z M1288.6,882.7h69.5v-23.2h-69.5V882.7z M547.5,856.6l1.1,0.5c0.9,0.4,1.8,0.9,2.7,1.5s1.9,1.3,2.7,2
				c0.6,0.6,1.2,1.1,1.6,1.6c4.6,4.9,7.2,11.3,7.2,18v2.5h18.4V678.1H521v167.5l1.5,0.3c4.3,1,8.2,3.4,11,6.7l2.4,2.9l1-3.7
				c0.1-0.4,0.5-0.7,0.9-0.7H567c0.5,0.1,0.8,0.7,0.7,1.2c-0.1,0.3-0.4,0.6-0.7,0.7h-19.5V856.6z M518.5,847.4c-0.5,0-1.1,0-1.6,0.1
				c-0.7,0.1-1.4,0.2-2,0.3c-10,2.1-16.5,12.7-14.6,23.5c0.3,1.7,0.8,3.3,1.5,4.9c0.2,0.5,0,1-0.4,1.2c-0.9,0.5-1.8,1.1-2.5,1.8
				l-4,3.5h66v-2.4c0-4.7-1.4-9.3-3.9-13.2c-0.8-1.2-1.7-2.4-2.7-3.5l-0.3-0.3l-0.2-0.1c-1-1-2.1-1.9-3.2-2.7
				c-3.4-2.3-7.5-3.6-11.6-3.6h-0.2c-1.2,0-2.5,0.1-3.7,0.4h-0.2c-0.3,0-0.7-0.2-0.8-0.5c-2.3-4.1-6.1-7.1-10.5-8.5
				c-1.1-0.3-2.2-0.6-3.3-0.7C519.6,847.5,519,847.4,518.5,847.4L518.5,847.4z M493.1,685.2c0,0.1,0,0.2,0,0.2v40.7v0.3v0.1
				c0,0.3-0.2,0.5-0.4,0.7l-13,8.8v146.7h13.9l0.6-0.9c1.1-1.8,2.6-3.4,4.3-4.7l1.1-0.8l-0.5-1.3c-0.3-1-0.6-2.1-0.8-3.2
				c-2.2-11.8,5-23.4,16.1-25.7c0.9-0.2,1.8-0.3,2.7-0.4l1.8-0.1V677.2c0-0.6,0.4-1,1-1h31.4v-54.8h-83.9v43H478c0.6,0,1,0.4,1,1
				v11.4l13.6,7.9l0.1,0.1l0.1,0.1l0.1,0.1C493,685,493,685.1,493.1,685.2L493.1,685.2L493.1,685.2z M259.3,882.7h92V739.5h-44h-0.2
				c-1.7,0.4-3.6,0.4-5.3,0h-0.2h-42.4v143.2H259.3z M197.3,882.7h44v-140h-44V882.7z M130.6,833.3h7.5c0.6,0,1,0.4,1,1v48.3h56.2
				v-80.5h-64.7V833.3z M6.9,882.7h130.2v-47.4H6.9v13.9h103.2c0.6,0,1,0.4,1,1v16.1c0,0.6-0.4,1-1,1H6.9V882.7z M470.3,882.6h7.5
				V736.5h-7.5V882.6z M445.4,882.6h23v-29.8h-23V882.6z M417.1,882.6h26.4v-29.8h-26.4V882.6z M395.7,882.6h19.4v-29.8h-9
				c-0.5,0.1-1.1-0.2-1.2-0.7s0.2-1.1,0.7-1.2c0.2,0,0.4,0,0.5,0h9v-17.5h-9c-0.5,0.1-1.1-0.2-1.2-0.7s0.2-1.1,0.7-1.2
				c0.2,0,0.4,0,0.5,0h9V814h-9c-0.5,0.1-1.1-0.2-1.2-0.7s0.2-1.1,0.7-1.2c0.2,0,0.4,0,0.5,0h9v-17h-9c-0.5,0.1-1.1-0.2-1.2-0.7
				s0.2-1.1,0.7-1.2c0.2,0,0.4,0,0.5,0h9v-17.4h-9c-0.5,0.1-1.1-0.2-1.2-0.7s0.2-1.1,0.7-1.2c0.2,0,0.4,0,0.5,0h9v-18.2h-9
				c-0.5,0.1-1.1-0.2-1.2-0.7s0.2-1.1,0.7-1.2c0.2,0,0.4,0,0.5,0h9v-17.2h-19.4V882.6z M386.7,882.6h7.1v-29.8h-7.1V882.6z
				 M1611.8,862.5l9.5,8.4h25.8v-9.4h-34.3L1611.8,862.5z M6.9,865.3h102.2v-14.2H6.9V865.3z M1486.2,800.8
				c-7.1,0-12.9,5.3-12.9,11.9c0.1,5,3.3,9.4,8.1,11c0.3,0.1,0.5,0.4,0.6,0.7s-0.1,0.7-0.3,0.9c-3.7,3.2-5.8,7.8-5.8,12.7
				c0,9.7,8.6,17.6,19.1,17.6c3.9,0,7.7-1.1,10.9-3.2c2.8-1.8,5-4.2,6.4-7.1c1.1-2.3,1.7-4.8,1.7-7.3c0-1-0.1-2-0.3-3
				c-0.1-0.4,0.1-0.8,0.5-1c2.9-1.6,5.1-4,6.5-7c0.3-0.8,0.6-1.6,0.8-2.4c0.5-1.9,0.5-4,0.1-5.9c-1.2-5.7-5.6-10.1-11.2-11.5
				c-1.5-0.4-3.1-0.6-4.6-0.6c-0.7,0-1.3,0-2,0.1h-0.2l-0.8,0.1c-0.6,0.1-1.3,0.3-1.9,0.5c-0.7,0.2-1.3,0.4-2,0.7
				c-0.1,0.1-0.3,0.1-0.4,0.1c-0.4,0-0.7-0.2-0.8-0.5C1495.5,803.3,1491,800.7,1486.2,800.8z M445.4,850.8h23v-17.4h-23V850.8z
				 M417.1,850.8h26.4v-17.4h-26.4V850.8z M386.7,850.8h7.1v-17.4h-7.1V850.8z M1594,846.8l3.6,3.2h49.4v-9.4h-53V846.8z
				 M1589.5,736.8c-3.3,1.1-6.7,1.7-10.2,1.9l-1.9,0.1v107.4h14.6V736L1589.5,736.8z M1563,846.2h12.5V738.7l-1.8-0.2
				c-2.8-0.3-5.5-0.9-8.2-1.7l-2.6-0.8L1563,846.2L1563,846.2z M445.4,831.5h23V814h-23V831.5z M417.1,831.5h26.4V814h-26.4V831.5z
				 M386.7,831.5h7.1V814h-7.1V831.5z M1594,829h53v-9.4h-53V829z M445.4,812.1h23v-17h-23V812.1z M417.1,812.1h26.4v-17h-26.4
				V812.1z M386.7,812.1h7.1v-17h-7.1V812.1z M138.9,799.8H195v-15.4h-56.1V799.8z M445.4,793.2h23v-17.5h-23V793.2z M417.1,793.2
				h26.4v-17.5h-26.4V793.2z M386.7,793.2h7.1v-17.5h-7.1V793.2z M445.4,773.8h23v-18.2h-23V773.8z M417.1,773.8h26.4v-18.2h-26.4
				V773.8z M386.7,773.8h7.1v-18.2h-7.1V773.8z M445.4,753.7h23v-17.2h-23V753.7z M417.1,753.7h26.4v-17.2h-26.4V753.7z
				 M386.7,753.7h7.1v-17.2h-7.1V753.7z M201.7,740.7h34V732h-34V740.7z M272.9,737.7h63.4v-12h-63.4V737.7z M1577.6,663.5
				c-4.5,0-9.1,0.9-13.3,2.5c-1.1,0.4-2.1,0.9-3.1,1.4s-2.1,1.1-3.1,1.7c-17.2,10.7-22.4,33.4-11.6,50.5c2.9,4.7,6.9,8.7,11.6,11.6
				c1,0.6,2,1.2,3.1,1.7c1,0.5,2,1,3.1,1.4c8.5,3.3,18,3.3,26.6,0c1.1-0.4,2.1-0.9,3.1-1.4c1.1-0.5,2.1-1.1,3.1-1.7
				c17.2-10.7,22.4-33.4,11.6-50.5c-2.9-4.7-6.9-8.7-11.6-11.6c-1-0.6-2-1.2-3.1-1.7s-2-1-3.1-1.4
				C1586.6,664.3,1582.1,663.4,1577.6,663.5L1577.6,663.5z M471,734.5h7.4l10.5-7.2h-14L471,734.5z M446.1,734.5h22.7l2.6-4.6v-2.5
				l-2-0.1h-19.3L446.1,734.5z M416.7,734.5H444l4-7.2h-35.3L416.7,734.5z M395.3,734.5h19.2l-4-7.2h-19.2L395.3,734.5z M386,734.5
				h7.1l-4-7.2h-13.6L386,734.5z M201.7,730h11.2v-8h-11.2V730z M475.2,725.2h16v-38.8h-16V725.2z M450.3,725.2h23v-38.8h-23V725.2z
				 M412.2,725.2h36.2v-38.8h-36.2V725.2z M390.8,725.2h19.4v-38.8h-19.4V725.2z M373.3,725.2h15.6v-38.8h-15.6V725.2z M286.6,723.6
				h35.2v-12h-35.2V723.6z M304.4,687c-7.9,0-14.8,8.6-16.3,20.5l-0.3,2.2h33.3l-0.3-2.2C319.2,695.7,312.3,687,304.4,687z
				 M1407.6,549.7v0.2c0.7,38.9,4.8,75.7,11.3,103.6c7.8,33,18.4,51.2,30.1,51.2c10.6,0,20.6-15.6,28.2-44c0.2-0.8,0.4-1.6,0.7-2.5
				c0.4-1.5,0.8-3,1.1-4.6c6.7-28.2,10.8-65.3,11.5-104.4V549l-3.7-0.9l-4.8,9.8l0.1,0.6c0,0.1,0,0.1,0,0.2
				c0,32.7-3.3,63.4-9.4,86.5c-0.5,2-1.1,4-1.8,6.3l-0.1,0.4c-0.2,0.7-0.4,1.4-0.6,2c-5.9,18.2-13.2,27.8-21.1,27.8
				c-9.1,0-17.5-12.9-23.7-36.4c-4.6-17.5-7.7-39.5-8.9-63.6c-0.1-2.7-0.2-5.5-0.3-8.4c-0.2-4.9-0.2-9.8-0.2-14.4v-0.4l-4.7-9.5
				L1407.6,549.7z M387.5,677.2c0,0.3-0.2,0.7-0.5,0.8l-11,6.4h112.6l-11-6.4c-0.3-0.2-0.5-0.5-0.5-0.8v-11h-89.6V677.2z
				 M1449.1,556.4c-9.9-0.1-19.8,0.8-29.6,2.7l-1.6,0.3v1.6c0,6.7,0.2,13.6,0.6,20.4c0.1,2.4,0.3,4.8,0.4,7.2
				c3.6,53.6,16,91,30.2,91c7.2,0,14.2-9.8,19.7-27.5c0.2-0.8,0.5-1.6,0.7-2.4c6.6-22.5,10.6-54.8,10.7-88.7v-1.6l-1.6-0.3
				C1468.8,557.3,1459,556.4,1449.1,556.4z M1577.6,661.5c4.1,0,8.1,0.6,12,1.9l2.6,0.8v-12.5H1563v12.5l2.6-0.8
				C1569.5,662.1,1573.5,661.5,1577.6,661.5z M1571.8,649.3h11.6v-11.5h-11.6V649.3z M1699.5,618c0.6,0,1,0.4,1,1v11h15v-22h-51.1
				v22h17.2v-11c-0.1-0.5,0.2-1.1,0.7-1.2s1.1,0.2,1.2,0.7c0,0.2,0,0.4,0,0.5v11h15v-11C1698.5,618.5,1698.9,618.1,1699.5,618
				L1699.5,618z M467.5,619.4h83.9v-18h-83.8L467.5,619.4z M1676.2,606.1h27.1v-19.2h-27.1V606.1z M467.5,599.5h83.9V589h-83.9
				L467.5,599.5L467.5,599.5z M1408.7,539.2l2.3,4.8l6.7,13.5l1.5-0.3c9.8-1.9,19.8-2.9,29.8-2.7c9.9,0,19.8,0.9,29.5,2.7l1.4,0.2
				l9.6-19.4h-81L1408.7,539.2z"/>
			<path class="st4" d="M1532.4,680.4c-0.1,0-0.2,0-0.3-0.1c-0.5-0.2-0.8-0.7-0.6-1.2c1.2-3.5,2.9-6.9,5.1-10
				c0.2-0.3,0.5-0.4,0.8-0.4c0.2,0,0.4,0.1,0.6,0.2c0.2,0.1,0.4,0.4,0.4,0.6c0,0.3,0,0.5-0.2,0.7c-2,2.9-3.7,6.1-4.8,9.5
				C1533.2,680.1,1532.8,680.4,1532.4,680.4z"/>
			<path class="st4" d="M1535.9,730.7c-0.3,0-0.6-0.2-0.8-0.4c-4-6-6.7-12.8-7.9-19.9c-0.2-1.3-0.4-2.5-0.5-3.6
				c-0.5-4.9-0.3-9.9,0.5-14.8c0.1-0.5,0.5-0.8,0.9-0.8h0.2c0.5,0.1,0.9,0.6,0.8,1.1c-1,5.7-1.1,11.5-0.1,17.3
				c0.2,1.3,0.5,2.7,0.8,3.9c1.4,5.6,3.7,11,6.9,15.8c0.1,0.2,0.2,0.5,0.1,0.7s-0.2,0.5-0.4,0.6
				C1536.3,730.6,1536.1,730.7,1535.9,730.7z"/>
			<path class="st4" d="M1628.9,715.9h-0.2c-0.5-0.2-0.8-0.7-0.7-1.2c0.9-3.5,1.3-7,1.3-10.6c0-0.3,0.1-0.5,0.3-0.7
				c0.2-0.2,0.4-0.3,0.7-0.3c0.5,0,1,0.4,1,0.9c0.1,3.7-0.4,7.5-1.3,11.1C1629.7,715.6,1629.3,715.9,1628.9,715.9z"/>
			<path class="st4" d="M1618.2,733.7c-0.6,0-1-0.4-1-1c0-0.3,0.1-0.5,0.3-0.7c0.8-0.7,1.6-1.5,2.4-2.2c0.2-0.2,0.4-0.3,0.7-0.3
				c0.3,0,0.5,0.1,0.7,0.3s0.3,0.4,0.3,0.7s-0.1,0.5-0.3,0.7c-0.8,0.8-1.6,1.6-2.5,2.3C1618.6,733.6,1618.4,733.7,1618.2,733.7z"/>
			<path class="st4" d="M1554.8,713.2c-0.6,0-1-0.4-1-1V688c0.1-0.5,0.7-0.8,1.2-0.7c0.3,0.1,0.6,0.4,0.7,0.7v24.3
				C1555.8,712.8,1555.4,713.2,1554.8,713.2z"/>
			<path class="st4" d="M1569.6,722.2c-0.6,0-1-0.4-1-1V679c0.1-0.5,0.7-0.8,1.2-0.7c0.3,0.1,0.6,0.4,0.7,0.7v42.2
				C1570.5,721.7,1570.1,722.1,1569.6,722.2z"/>
			<path class="st4" d="M1584.9,722.2c-0.6,0-1-0.4-1-1V679c0.1-0.5,0.7-0.9,1.2-0.7c0.4,0.1,0.6,0.4,0.7,0.7v42.2
				C1585.8,721.7,1585.4,722.1,1584.9,722.2z"/>
			<path class="st4" d="M1598.8,713.2c-0.4,0-0.8-0.3-0.9-0.7c0-0.1-0.1-0.2-0.1-0.3V688c0-0.6,0.4-1,1-1s1,0.4,1,1v24.3
				C1599.8,712.8,1599.3,713.2,1598.8,713.2z"/>
			<path class="st4" d="M1287.6,850.4c-0.5-0.1-0.8-0.7-0.7-1.2c0.1-0.3,0.4-0.6,0.7-0.7h13.3l0.3-1.5c1.5-6.4,2.9-13,4.2-19.4
				l0.2-1l-0.7-0.7c-1-1-2-2.1-3.2-3.3c-3.5-3.6-7.5-7.7-9.4-10.8c-0.2-0.3-0.2-0.6-0.1-0.9c12.9-32.2,20-113.6,20.6-135
				c0-0.2,0.1-0.5,0.3-0.6l0.6-0.7l-0.1-0.9c-2.4-25-6.1-48.7-9.8-70.6c0-0.4,0.2-0.8,0.6-1c6.7-2.8,13.7-5,20.9-6.4l2-0.4
				l-9.9-41.9c-0.1-0.5,0.2-1.1,0.8-1.2h0.1h39.8c0.5,0,0.9,0.3,1,0.8c0.4,2.6,1.7,11,2.3,18.5l0.2,1.8h15.2c0.5,0,1,0.4,1,0.9
				c0.1,2.7,0.3,5.5,0.4,8.3v0.2l0.1,0.3c0,0.1,0,0.2,0.1,0.3c0,0.1,0,0.1,0,0.2v0.2v0.3c1,31.3,0.2,62.6-2.6,93.8
				c0,0-0.2,2.3-0.3,3.1c-0.5,4.7-1,9.2-1.5,13.3v0.3v0.3c0,0.1,0,0.1,0,0.2c0,0.1,0,0.3-0.1,0.4l-0.1,0.2v0.3
				c-2.7,21.3-6.2,37.6-10.5,48.6c0,0-0.1,0.1-0.1,0.2l-0.3,0.5v0.6c0.4,4.8,0.7,9.7,1,15.1l0.1,0.9c0,0.9,0.1,1.8,0.1,2.6
				c0.8,15.8,0.8,31.6-0.1,47.3v0.1v0.3l-0.1,0.3v0.2c-0.2,3.6-0.4,6.6-0.7,9.3v0.3l0.1,0.3c0,0.1,0,0.2,0,0.2c0,0.1,0,0.3-0.1,0.4
				l-0.1,0.3v0.4c-0.8,8.6-2.2,17.2-4,25.7c-0.1,0.4-0.5,0.8-0.9,0.8h-70.6V850.4z M1330.1,596.7c-7.8,1.2-15.5,3.3-22.9,6.2
				l-1.5,0.6l0.3,1.6c4.8,28.1,9.8,61.6,11.4,96.9c0.3,5.1,0.5,10.3,0.6,15.6c0.1,7.7,0,15.6-0.3,23.7
				c-1.1,33.6-5.8,67.9-14.2,104.8l-0.6,2.4h54.4l0.3-1.6c0.1-0.3,0.3-1.5,0.3-1.5l0.4-2.3l-47.2-0.3c-0.5-0.1-0.8-0.7-0.7-1.2
				c0.1-0.3,0.4-0.6,0.7-0.7l47.5,0.3l0.3-1.7c0.1-0.8,0.2-1.6,0.3-2.4l0.4-2.9l-42.2-0.2c-0.3,0-0.5-0.1-0.7-0.3s-0.3-0.4-0.3-0.7
				c0-0.6,0.4-1,1-1l42.4,0.2l0.2-1.9c0.2-1.5,0.3-2.9,0.5-4.4l0.2-2.2l-36.4-0.2c-0.3,0-0.5-0.1-0.7-0.3s-0.3-0.4-0.3-0.7
				c0-0.6,0.4-1,1-1l36.5,0.2l0.2-1.8c0.1-1.3,0.2-2.7,0.3-4.1l0.2-2.8l-31.4,1.3c-0.5,0-1-0.4-1-0.9s0.4-1,0.9-1l31.6-1.3l0.1-2.8
				c0.1-1.3,0.1-2.6,0.2-3.9l0.1-2.1l-28.6,1c-0.5,0-1-0.4-1.1-0.9c0-0.5,0.4-1,0.9-1l28.7-1v-1.8c0-1.8,0.1-3.7,0.1-5.5V791
				l-27.5,1.6c-0.5,0-0.9-0.4-1-0.9c0-0.3,0.1-0.5,0.2-0.7c0.2-0.2,0.4-0.3,0.7-0.3l27.6-1.6v-1.8c0-2.2,0-4.3,0-6.5v-2.2l-25.9,3.1
				c-0.5,0-1-0.3-1.1-0.8c0-0.3,0-0.5,0.2-0.7s0.4-0.3,0.7-0.4l26-3.1v-1.8c0-1.6-0.1-3.2-0.2-4.8l-0.1-2.1l-26,3.3h-0.2
				c-0.5-0.1-0.9-0.7-0.7-1.2c0.1-0.3,0.3-0.6,0.6-0.7l26-3.3l-0.1-2c0-1-0.1-1.9-0.1-2.8l-0.2-3.2l-24.2,3.5h-0.2
				c-0.5,0-0.9-0.3-1-0.8c0-0.3,0-0.5,0.2-0.7s0.4-0.3,0.6-0.4l24.4-3.5l-0.1-2.2c-0.1-1.8-0.2-3.5-0.3-5.3l-0.2-2.3l-24.4,5.8h-0.2
				c-0.4,0-0.8-0.3-0.9-0.7c-0.1-0.5,0.2-1,0.7-1.2l24.7-5.9v-0.2l-0.4-5.3l-0.2-2.3l-23.6,6.2h-0.2c-0.6,0-1-0.5-0.9-1.1
				c0-0.1,0-0.3,0.1-0.4c0.1-0.2,0.3-0.4,0.6-0.5l23.9-6.3l-1.1-7.8l-22.1,5.8c-0.1,0-0.2,0-0.2,0c-0.5-0.1-0.9-0.6-0.8-1.2
				c0.1-0.3,0.3-0.6,0.6-0.7l22.3-5.9l-1.4-10l-20.2,5.6c-0.1,0-0.2,0-0.2,0c-0.4,0-0.8-0.3-0.9-0.7c-0.1-0.2,0-0.5,0.1-0.7
				s0.3-0.4,0.6-0.5l20.5-5.4l-1.2-8.1l-18.8,5c-0.5,0.1-1-0.2-1.2-0.7c-0.1-0.5,0.2-1,0.7-1.2l19-5l-1.4-9l-17.5,4.6
				c-0.1,0-0.2,0-0.2,0c-0.4,0-0.8-0.3-0.9-0.7c-0.1-0.2,0-0.5,0.1-0.7s0.3-0.4,0.6-0.5l17.7-4.7l-1.3-7.8l-14.8,3.9
				c-0.1,0-0.2,0-0.2,0c-0.4,0-0.8-0.3-0.9-0.7c-0.1-0.5,0.2-1,0.7-1.2l15-4l-0.3-1.8c-0.3-1.9-0.7-3.8-1-5.6l-0.4-2.1l-14.9,3.9
				h-0.2c-0.6,0-1-0.5-0.9-1.1c0-0.1,0-0.3,0.1-0.4c0.1-0.2,0.3-0.4,0.6-0.5l15-4l-0.3-1.8c-0.4-2.2-0.8-4.3-1.2-6.4l-0.4-2.1
				l-15.3,4c-0.1,0-0.2,0-0.2,0c-0.4,0-0.8-0.3-0.9-0.7c-0.1-0.5,0.2-1,0.7-1.2l15.5-4.1l-0.3-1.8c-0.3-1.7-0.6-3.3-1-4.9l-0.4-2
				l-15,3.9c-0.1,0-0.2,0-0.2,0c-0.5-0.1-0.9-0.6-0.8-1.2c0.1-0.3,0.3-0.6,0.6-0.7l15.1-4l-0.4-1.8c-0.4-2.2-0.9-4.2-1.3-6.2l-0.4-2
				l-15.8,4.2c-0.1,0-0.2,0-0.2,0c-0.5-0.1-0.9-0.6-0.8-1.2c0.1-0.3,0.3-0.6,0.6-0.7l15.9-4.2l-0.4-1.8c-0.5-2.1-0.9-4.1-1.4-6
				l-0.5-2l-14.3,3.8c-0.1,0-0.2,0-0.2,0c-0.6,0-1-0.5-0.9-1.1c0-0.1,0-0.3,0.1-0.4c0.1-0.2,0.3-0.4,0.6-0.5l14.3-3.8l-0.8-3.3
				c-0.4-1.6-0.8-3.1-1.3-4.6l-0.5-1.9l-11.3,3c-0.1,0-0.2,0-0.2,0c-0.4,0-0.8-0.3-0.9-0.7c-0.1-0.3,0-0.5,0.1-0.7s0.3-0.4,0.6-0.4
				l11.3-3l-0.6-1.9c-0.2-0.8-0.5-1.7-0.7-2.5l-0.8-2.7l-10,2.6c-0.1,0-0.2,0-0.2,0c-0.4,0-0.8-0.3-0.9-0.7c-0.1-0.5,0.2-1,0.7-1.2
				l10-2.6l-0.9-2.9c-0.3-0.9-0.6-1.9-0.9-2.8l-0.5-1.6L1330.1,596.7z M1312,713.5c-2.5,25.4-8,71.8-17.4,96.6l-0.4,1l0.6,0.9
				c2.4,3,5,5.9,7.8,8.7l2.6,2.7l0.8-3.6c5.4-25.9,8.7-52.1,9.8-78.6l0.1-1.8c0-1.2,0.1-2.4,0.1-3.6c0.2-6.7,0.2-13.4,0.1-19.8v-2.5
				l-3.9-0.2L1312,713.5z M1359.6,719.3c0.5,3.8,1.1,7.8,1.6,11.8v0.2l3.8,0.2l0.1-0.2c0.9-3.7,1.9-7.7,2.7-12l0.5-2.3h-9
				L1359.6,719.3z M1357.6,705.2c0,0,0.9,6.1,1.2,8.2l0.2,1.7h9.6l0.3-1.6c0.3-2,0.7-4.1,1-6.2l0.3-2.3h-12.8L1357.6,705.2z
				 M1357.2,703h13.4l0.2-1.7c0.2-1.1,0.3-2.1,0.4-3.2l0.3-2.2h-15.4L1357.2,703z M1355.8,694h16l0.2-1.7c0.2-1.5,0.3-3,0.5-4.6
				l0.2-2.2h-15.2c-0.1,0-0.2,0-0.2-0.1l-1.7-0.6l1.4-1.1c0.1-0.1,0.2-0.1,0.2-0.1c0.1,0,0.2-0.1,0.3-0.1h15.3l0.2-1.8
				c0.1-1.1,0.2-2.3,0.3-3.4l0.2-2.6h-20.9l1.5,9l0,0L1355.8,694z M1332.8,594.4c0.1,0,0.2,0,0.3,0l0.2,0.1c0.1,0.1,0.1,0.1,0.2,0.2
				c0.1,0.1,0.1,0.1,0.2,0.2l0.1,0.2c0.6,1.3,3.7,9.1,8.3,28l0.6,2.4l0.2,0.8c0.8,3.2,1.5,6.5,2.2,9.9c2.4,10.9,4.8,23.1,7.1,36.1
				l0.3,2l1.9-0.4h0.2h19.2l0.2-1.8c0.1-1.3,0.2-2.6,0.3-3.9l0.2-2.1H1358c-0.5,0.1-1.1-0.2-1.2-0.7s0.2-1.1,0.7-1.2
				c0.2,0,0.4,0,0.5,0h16.6l0.1-1.8c0.1-1.7,0.2-3.5,0.3-5.2l0.1-2.1H1356c-0.6,0-1-0.4-1-1c0-0.2,0.1-0.4,0.2-0.5
				c0.2-0.3,0.5-0.4,0.8-0.4h19.3l0.1-1.9c0.1-2,0.2-3.9,0.3-5.9l0.1-2h-19.2c-0.5,0.1-1.1-0.2-1.2-0.7s0.2-1.1,0.7-1.2
				c0.2,0,0.4,0,0.5,0h19.2l0.1-1.9c0-1.4,0.1-2.8,0.1-4.2l0.1-2h-17.8c-0.5-0.1-0.8-0.7-0.7-1.2c0.1-0.3,0.4-0.6,0.7-0.7h17.9v-1.9
				c0.1-2,0.1-3.9,0.1-5.9v-2h-15.8c-0.5-0.1-0.8-0.7-0.7-1.2c0.1-0.3,0.4-0.6,0.7-0.7h15.8v-2c0-1.5,0-3,0-4.5v-2h-15.8
				c-0.5-0.1-0.8-0.7-0.7-1.2c0.1-0.3,0.4-0.6,0.7-0.7h15.8v-6.8h-15.8c-0.5-0.1-0.8-0.7-0.7-1.2c0.1-0.3,0.4-0.6,0.7-0.7h15.8v-0.2
				c0,0-0.1-4.4-0.1-5.7v-1.9h-15.6c-0.5-0.1-0.8-0.7-0.7-1.2c0.1-0.3,0.4-0.6,0.7-0.7h15.6l-0.2-6.5h-15.1
				c-0.5,0.1-1.1-0.2-1.2-0.7s0.2-1.1,0.7-1.2c0.2,0,0.4,0,0.5,0h15V582c0,0-0.2-4.2-0.2-5l-0.1-1.9h-15.2c-0.5,0-1-0.4-1-0.9
				c-0.4-7-1.6-15.3-2.1-18.6l-0.3-1.7h-37.7l9.6,40.7l1.7-0.2l0.9-0.1l1-0.1L1332.8,594.4z"/>
			<path class="st3" d="M1395.1,357.1c-2.4,0-4.7,0.6-6.8,1.8v-0.1c0-5.4-4.4-9.8-9.8-9.8c-2.6,0-5.2,1.1-7,2.9
				c-1.7-1.8-4-2.9-6.5-2.9h-0.4c-1.5-7.3-8.6-12-15.8-10.5c-3.5,0.7-6.6,2.8-8.6,5.8c-8.6-4.5-19.2-1.3-23.7,7.3
				c-1.3,2.5-2,5.3-2,8.2c0,0.4,0,0.9,0,1.3h-0.4c-7.2,0-13.1,5.9-13.1,13.1s5.9,13.1,13.1,13.1c6.3,0,11.7-4.5,12.8-10.6
				c1.6,0.5,3.3,0.7,5.1,0.7c1,0,1.9-0.1,2.9-0.2c3.2,5.2,14.4,9.1,27.7,9.1c9.6,0,18.1-2,23.3-5.1c5.6,5.1,14.4,4.7,19.5-1
				c5.1-5.6,4.7-14.4-1-19.5C1401.8,358.3,1398.5,357,1395.1,357.1L1395.1,357.1z"/>
			<path class="st3" d="M716.3,484c5.1-6.1-5.8-12.8-10.9-13c-4.5-0.2-10.7,1.6-13.3,5.6c-1.7-0.8-3.6-1.2-5.5-1.2
				c-5.2,0-9.5,2.9-10.4,6.8c-4.1,5.5-12.3,6.8-18.7,4.5c-4.8-1.8-13.4-3.4-12.6,5.3c0.5,5,6.1,6.7,10.3,6.3
				c6-0.6,11.6-3.6,17.7-4.3c11-1.3,21.8,1.9,32.6,3.3c7.5,1,25.8,2.4,27.6-8.6C734.8,479.2,721.1,482.7,716.3,484z"/>
			<path class="st3" d="M220,647.3c-1.7,0-3.3,0.4-4.7,1.2v-0.1c0-3.8-3.1-6.8-6.8-6.8c-1.8,0-3.6,0.7-4.8,2c-1.2-1.3-2.8-2-4.5-2
				h-0.3c-1-5-5.9-8.3-11-7.2c-2.4,0.5-4.5,1.9-5.9,4c-5.9-3.1-13.3-0.9-16.4,5.1c-0.9,1.7-1.4,3.7-1.4,5.7c0,0.3,0,0.6,0,0.9h-0.3
				c-5,0-9,4.1-9,9c0,5,4.1,9,9,9c4.3,0,8-3.1,8.8-7.3c1.1,0.3,2.3,0.5,3.5,0.5c0.7,0,1.3-0.1,2-0.2c2.2,3.6,10,6.3,19.2,6.3
				c6.6,0,12.5-1.4,16.1-3.5c3.9,3.5,9.9,3.3,13.5-0.6s3.3-9.9-0.6-13.5C224.6,648.2,222.4,647.3,220,647.3z"/>
			<path class="st3" d="M652.6,407.2c-2.4,0-4.7,0.6-6.8,1.8v-0.1c0-5.4-4.4-9.8-9.8-9.9c-2.6,0-5.2,1.1-7,2.9
				c-1.7-1.8-4.1-2.9-6.5-2.9H622c-1.5-7.3-8.6-12-15.8-10.5c-3.5,0.7-6.6,2.8-8.6,5.8c-8.6-4.5-19.2-1.3-23.7,7.3
				c-1.3,2.5-2,5.3-2,8.2c0,0.4,0,0.9,0.1,1.3h-0.4c-7.2,0-13.1,5.8-13.1,13.1s5.8,13.1,13.1,13.1c6.3,0,11.7-4.5,12.8-10.6
				c2.6,0.8,5.3,1,8,0.5c3.2,5.2,14.4,9.1,27.7,9.1c9.6,0,18.1-2,23.3-5.1c5.6,5.1,14.4,4.7,19.5-1c5.1-5.6,4.7-14.4-1-19.5
				C659.3,408.4,656,407.1,652.6,407.2L652.6,407.2z"/>
			<path class="st3" d="M1939,410.7c-2.4,0-4.7,0.6-6.8,1.8v-0.1c0-5.4-4.4-9.8-9.8-9.8c-2.6,0-5.2,1.1-7,2.9
				c-1.7-1.8-4-2.9-6.5-2.9h-0.4c-1.5-7.3-8.6-12-15.8-10.5c-3.5,0.7-6.6,2.8-8.6,5.8c-8.6-4.5-19.2-1.3-23.7,7.3
				c-1.3,2.5-2,5.3-2,8.2c0,0.4,0,0.9,0,1.3h-0.4c-7.2,0-13.1,5.9-13.1,13.1s5.9,13.1,13.1,13.1c6.3,0,11.7-4.5,12.8-10.6
				c1.6,0.5,3.3,0.7,5,0.7c1,0,1.9-0.1,2.9-0.2c3.2,5.2,14.4,9.1,27.7,9.1c9.6,0,18.1-2,23.3-5.1c5.6,5.1,14.4,4.7,19.5-1
				c5.1-5.6,4.7-14.4-1-19.5C1945.7,412,1942.4,410.7,1939,410.7L1939,410.7z"/>
			<path class="st3" d="M499.6,514.6c-2.3,0-4.5,0.6-6.5,1.7v-0.1c0-5.2-4.2-9.3-9.4-9.3c-2.5,0-4.9,1-6.6,2.8
				c-1.6-1.7-3.8-2.7-6.2-2.7h-0.4c-1.4-6.9-8.1-11.4-15.1-10c-3.3,0.7-6.3,2.7-8.1,5.5c-8.1-4.3-18.2-1.2-22.5,7
				c-1.3,2.4-1.9,5.1-1.9,7.8c0,0.4,0,0.8,0,1.2h-0.4c-6.9,0-12.4,5.6-12.4,12.4c0,6.9,5.6,12.4,12.4,12.4c6,0,11.1-4.2,12.2-10.1
				c2.5,0.7,5,0.9,7.6,0.5c3.1,5,13.7,8.6,26.3,8.6c9.1,0,17.2-1.9,22.1-4.8c5.3,4.9,13.6,4.5,18.5-0.9c4.9-5.4,4.5-13.6-0.9-18.5
				C506,515.8,502.9,514.6,499.6,514.6L499.6,514.6z"/>
			<path class="st3" d="M1097.7,402.6c-1.9,0-3.7,0.5-5.3,1.4v-0.1c0-4.2-3.5-7.7-7.7-7.7c-2.1,0-4,0.8-5.5,2.3
				c-1.3-1.4-3.2-2.2-5.1-2.2h-0.3c-1.2-5.7-6.7-9.3-12.4-8.1c-2.7,0.6-5.1,2.2-6.6,4.5c-6.7-3.5-15-1-18.5,5.7
				c-1,2-1.6,4.2-1.6,6.4c0,0.3,0,0.7,0,1h-0.3c-5.6,0-10.2,4.5-10.2,10.2c0,5.6,4.5,10.2,10.2,10.2c4.9,0,9.1-3.5,10-8.3
				c1.3,0.4,2.6,0.6,4,0.6c0.8,0,1.5-0.1,2.3-0.2c2.5,4.1,11.2,7.1,21.6,7.1c7.5,0,14.1-1.6,18.2-4c4.4,4,11.2,3.7,15.2-0.7
				c4-4.4,3.7-11.2-0.7-15.2C1103,403.6,1100.4,402.6,1097.7,402.6L1097.7,402.6z"/>
			<path class="st3" d="M1567.9,536.1c-1,0-1.9,0.3-2.8,0.7v-0.1c0-2.2-1.7-4-3.9-4.1c-1.1,0-2.2,0.4-3,1.3
				c-0.7-0.8-1.7-1.2-2.7-1.2h-0.2c-0.6-3-3.5-4.9-6.5-4.3c-1.5,0.3-2.7,1.1-3.5,2.4c-3.5-1.9-7.9-0.5-9.7,3c-0.5,1-0.8,2.2-0.8,3.3
				c0,0.2,0,0.4,0,0.5h-0.2c-3,0-5.4,2.4-5.4,5.4s2.4,5.4,5.4,5.4c2.6,0,4.8-1.8,5.3-4.4c0.7,0.2,1.4,0.3,2.1,0.3
				c0.4,0,0.8,0,1.2-0.1c1.3,2.2,5.9,3.7,11.3,3.7c3.3,0.1,6.6-0.6,9.6-2.1c2.3,2.1,5.9,1.9,8-0.4c2.1-2.3,1.9-5.9-0.4-8
				C1570.6,536.6,1569.3,536.1,1567.9,536.1L1567.9,536.1z"/>
			<path class="st3" d="M1542.5,511.8c-1,0-1.9,0.3-2.8,0.7v-0.1c0-2.2-1.7-4-3.9-4.1c-1.1,0-2.2,0.4-3,1.3
				c-0.7-0.8-1.7-1.2-2.7-1.2h-0.1c-0.6-3-3.5-4.9-6.5-4.3c-1.4,0.3-2.7,1.2-3.5,2.4c-3.5-1.9-7.9-0.5-9.7,3c-0.5,1-0.8,2.2-0.8,3.3
				c0,0.2,0,0.3,0,0.5h-0.2c-3,0-5.4,2.4-5.4,5.4s2.4,5.4,5.4,5.4c2.6,0,4.8-1.8,5.3-4.4c0.7,0.2,1.4,0.3,2.1,0.3
				c0.4,0,0.8,0,1.2-0.1c1.3,2.1,5.9,3.7,11.3,3.7c3.3,0.1,6.6-0.6,9.6-2.1c2.3,2.1,5.9,1.9,8-0.4c2.1-2.3,1.9-5.9-0.4-8
				C1545.2,512.4,1543.9,511.9,1542.5,511.8L1542.5,511.8z"/>
			<path class="st3" d="M150.8,517.3c5.1-6.1-5.8-12.8-10.9-13c-4.5-0.2-10.7,1.6-13.3,5.6c-1.7-0.8-3.6-1.2-5.5-1.2
				c-5.2,0-9.5,2.9-10.4,6.7c-4.1,5.5-12.3,6.8-18.7,4.5c-4.8-1.8-13.4-3.3-12.6,5.3c0.5,5,6.1,6.7,10.3,6.3
				c6-0.6,11.6-3.5,17.7-4.3c11-1.3,21.8,1.9,32.6,3.3c7.5,1,25.8,2.4,27.6-8.6C169.3,512.5,155.5,516,150.8,517.3z"/>
			<path class="st5" d="M1383.6,939.8l-0.8-9.2c-0.1-1.7,1.1-3.1,2.8-3.2c0.9-0.1,1.8,0.3,2.4,0.9l5.1,5.6c1.1,1.2,3,1.2,4.2,0.1
				c0.3-0.3,0.6-0.7,0.8-1.2l6.9-20.9c0.5-1.6,2.3-2.4,3.8-1.8c1,0.3,1.7,1.1,1.9,2.1l0.9,3.9c0.4,1.6,2,2.6,3.6,2.2
				c0.8-0.2,1.5-0.7,1.9-1.4l8.3-13.7c0.9-1.4,2.7-1.8,4.1-1c0.9,0.6,1.5,1.6,1.4,2.7l-0.8,10.7c-0.1,1.7,1.1,3.1,2.8,3.2
				c0.5,0,1,0,1.4-0.2l10.4-4.5c1.5-0.6,3.3,0.1,3.9,1.6c0.4,1,0.3,2-0.3,2.9l-8.5,11.6c-1,1.3-0.7,3.2,0.7,4.2
				c0.5,0.4,1.2,0.6,1.9,0.6l0,0c1.7-0.1,3,1.2,3.1,2.9c0,0.9-0.4,1.8-1.1,2.4l-1.8,1.5c-0.5,0.4-1.2,0.6-1.8,0.7h-54.2
				C1385,942.5,1383.7,941.3,1383.6,939.8z"/>
			<path class="st5" d="M1422.2,942.5c0,0,3.8-9.9,9.4-12.5"/>
			<path class="st5" d="M1413.3,942.5c0,0,3.3-17.8,8.9-22.4"/>
			<line class="st5" x1="1404.9" y1="942.5" x2="1404.9" y2="926.7"/>
			<path class="st5" d="M402.5,947.2l1.1-12.3c0.2-2.2-1.4-4.1-3.6-4.3c-1.2-0.1-2.5,0.4-3.3,1.3l-6.9,7.5c-1.5,1.6-4,1.7-5.7,0.2
				c-0.5-0.5-0.9-1-1.1-1.7l-9.3-28c-0.7-2.1-2.9-3.2-5-2.6c-1.3,0.4-2.4,1.6-2.7,2.9l-1.2,5.2c-0.5,2.2-2.6,3.5-4.8,3.1
				c-1.1-0.2-2-0.9-2.6-1.9l-11.1-18.4c-1.1-1.9-3.6-2.5-5.5-1.4c-1.3,0.8-2.1,2.2-2,3.8l1,14.3c0.2,2.2-1.5,4.1-3.7,4.3
				c-0.7,0.1-1.3-0.1-1.9-0.3l-14-6c-2-0.9-4.4,0-5.3,2.1c-0.6,1.3-0.4,2.8,0.5,4l11.4,15.6c1.3,1.8,0.9,4.3-0.8,5.6
				c-0.7,0.6-1.7,0.8-2.6,0.8l0,0c-2.2-0.1-4.1,1.6-4.2,3.8c-0.1,1.3,0.5,2.6,1.5,3.4l2.5,2c0.7,0.6,1.6,0.9,2.5,0.9h72.8
				C400.6,951,402.3,949.3,402.5,947.2z"/>
			<path class="st5" d="M350.6,950.9c0,0-5.1-13.3-12.6-16.7"/>
			<path class="st5" d="M362.6,950.9c0,0-4.4-23.9-12-30.1"/>
			<line class="st5" x1="373.8" y1="950.9" x2="373.8" y2="929.7"/>
			<path class="st2" d="M1449.1,993.2l-1.1-13c-0.2-2.3,1.5-4.4,3.8-4.6c1.3-0.1,2.6,0.4,3.5,1.4l7.3,8c1.6,1.7,4.3,1.8,6,0.3
				c0.5-0.5,0.9-1.1,1.2-1.8l9.9-29.6c0.8-2.2,3.2-3.4,5.4-2.7c1.4,0.5,2.5,1.6,2.8,3.1l1.2,5.5c0.5,2.3,2.8,3.7,5.1,3.2
				c1.1-0.3,2.1-1,2.7-2l11.8-19.5c1.2-2,3.8-2.6,5.8-1.4c1.4,0.8,2.1,2.3,2,3.9l-1.1,15.1c-0.2,2.3,1.6,4.4,3.9,4.5
				c0.7,0.1,1.4-0.1,2-0.3l14.8-6.3c2.1-0.9,4.6,0.1,5.6,2.2c0.6,1.4,0.4,3-0.5,4.2l-12,16.5c-1.4,1.9-1,4.6,0.9,5.9
				c0.8,0.6,1.7,0.8,2.7,0.8l0,0c2.3-0.1,4.3,1.7,4.5,4c0.1,1.4-0.5,2.7-1.6,3.5l-2.6,2.1c-0.8,0.6-1.7,0.9-2.6,0.9h-77
				C1451.1,997.2,1449.3,995.5,1449.1,993.2z"/>
			<path class="st2" d="M232.2,1038.8l1.7-20.1c0.3-3.6-2.4-6.8-6-7.1c-2-0.2-4,0.6-5.4,2.1l-11.3,12.3c-2.4,2.7-6.6,2.8-9.3,0.4
				c-0.8-0.8-1.4-1.7-1.8-2.8l-15.3-45.9c-1.2-3.4-4.9-5.3-8.3-4.1c-2.2,0.7-3.8,2.5-4.3,4.8l-1.9,8.5c-0.8,3.5-4.3,5.8-7.9,5
				c-1.7-0.4-3.2-1.5-4.1-3l-18.2-30.2c-1.9-3.1-5.9-4.1-9-2.2c-2.1,1.3-3.3,3.6-3.1,6.1l1.7,23.4c0.3,3.6-2.5,6.8-6.1,7
				c-1,0.1-2.1-0.1-3.1-0.5l-22.9-9.8c-3.3-1.4-7.2,0.1-8.6,3.5c-0.9,2.1-0.6,4.6,0.7,6.4l18.6,25.4c2.1,2.9,1.5,7-1.4,9.2
				c-1.2,0.9-2.7,1.3-4.2,1.3l0,0c-3.6-0.2-6.7,2.6-6.9,6.3c-0.1,2.1,0.8,4.1,2.5,5.4l4,3.2c1.2,0.9,2.6,1.4,4.1,1.4h119.3
				C229.1,1044.8,231.9,1042.2,232.2,1038.8z"/>
			<path class="st2" d="M1188.9,912.1l0.5-4.5c0.1-0.8,0.8-1.4,1.6-1.3c0.5,0,0.9,0.3,1.1,0.7l2,3.2c0.4,0.7,1.3,0.9,2,0.5
				c0.2-0.1,0.4-0.3,0.5-0.5l5.3-9.5c0.4-0.7,1.3-1,2-0.6c0.5,0.3,0.7,0.7,0.8,1.2l0.1,2c0,0.8,0.7,1.5,1.5,1.4
				c0.4,0,0.8-0.2,1.1-0.5l5.3-5.9c0.5-0.6,1.5-0.7,2.1-0.1c0.4,0.4,0.6,1,0.5,1.5l-1.4,5.1c-0.2,0.8,0.3,1.6,1,1.8
				c0.2,0.1,0.5,0.1,0.7,0l5.5-1.2c0.8-0.2,1.6,0.3,1.8,1.1c0.1,0.5,0,1.1-0.4,1.4l-5.2,4.9c-0.6,0.6-0.6,1.5-0.1,2.1
				c0.2,0.3,0.5,0.4,0.9,0.5l0,0c0.8,0.1,1.4,0.9,1.3,1.7c-0.1,0.5-0.4,0.9-0.8,1.1l-1,0.5c-0.3,0.2-0.7,0.2-1,0.1l-26.4-5
				C1189.3,913.6,1188.8,912.9,1188.9,912.1z"/>
		</g>
	</g>
</g>
</svg>
